<?xml version="1.0" standalone="no"?>
<!DOCTYPE svg PUBLIC "-//W3C//DTD SVG 20010904//EN"
 "http://www.w3.org/TR/2001/REC-SVG-20010904/DTD/svg10.dtd">
<svg version="1.0" xmlns="http://www.w3.org/2000/svg"
 width="1300.000000pt" height="922.000000pt" viewBox="0 0 1300.000000 922.000000"
 preserveAspectRatio="xMidYMid meet">

<g transform="translate(0.000000,922.000000) scale(0.100000,-0.100000)"
fill="#000000" stroke="none">
<path d="M9472 8273 c2 -10 10 -18 18 -18 22 0 18 29 -3 33 -14 3 -18 -1 -15
-15z"/>
<path d="M5610 8050 c-8 -5 -20 -24 -26 -42 -9 -26 -16 -33 -37 -33 -15 0 -27
-3 -27 -7 -1 -32 2 -38 17 -38 9 0 24 6 32 14 9 7 26 17 38 20 18 6 22 4 17
-8 -4 -11 0 -16 14 -16 24 0 37 30 28 65 -5 18 -1 25 15 30 17 6 19 9 8 16
-18 11 -60 11 -79 -1z"/>
<path d="M5605 7920 c3 -5 8 -10 11 -10 2 0 4 5 4 10 0 6 -5 10 -11 10 -5 0
-7 -4 -4 -10z"/>
<path d="M3830 7865 c0 -8 4 -15 10 -15 5 0 7 7 4 15 -4 8 -8 15 -10 15 -2 0
-4 -7 -4 -15z"/>
<path d="M4058 7823 c7 -3 16 -2 19 1 4 3 -2 6 -13 5 -11 0 -14 -3 -6 -6z"/>
<path d="M5258 7768 c-31 -32 -32 -36 -19 -57 8 -12 12 -12 25 -2 8 7 24 10
34 7 12 -4 24 0 32 9 11 14 9 20 -16 44 l-29 29 -27 -30z"/>
<path d="M4903 7755 c-3 -9 -2 -19 2 -23 4 -4 10 -1 12 6 3 6 13 12 24 12 10
0 19 5 19 10 0 16 -50 11 -57 -5z"/>
<path d="M6803 7756 c14 -18 8 -36 -10 -29 -15 6 -16 5 -3 -9 8 -9 17 -12 18
-7 2 6 10 5 18 -2 22 -18 16 3 -9 31 -12 14 -19 21 -14 16z"/>
<path d="M5400 7730 c0 -5 7 -10 16 -10 8 0 12 5 9 10 -3 6 -10 10 -16 10 -5
0 -9 -4 -9 -10z"/>
<path d="M5041 7708 c-1 -13 7 -18 29 -18 17 0 30 5 30 11 0 7 -9 9 -24 5 -15
-4 -26 -1 -29 7 -3 7 -6 5 -6 -5z"/>
<path d="M4914 7664 c-11 -33 -3 -56 11 -34 4 6 15 8 26 5 10 -4 19 -2 19 3 0
5 -10 12 -21 15 -14 4 -20 11 -16 21 3 8 3 17 -1 20 -4 2 -12 -11 -18 -30z"/>
<path d="M5536 7664 c-10 -25 1 -29 14 -5 6 12 7 21 1 21 -5 0 -12 -7 -15 -16z"/>
<path d="M6682 7660 c7 -10 14 -18 15 -16 6 6 -9 36 -18 36 -5 0 -4 -9 3 -20z"/>
<path d="M5192 7658 c-7 -7 -12 -18 -12 -26 0 -10 -9 -13 -29 -10 -20 3 -32
-1 -40 -14 -6 -10 -17 -18 -25 -18 -16 0 -76 -29 -76 -37 0 -3 17 -3 38 0 36
6 36 6 12 -8 l-25 -14 29 -1 c59 0 14 -13 -60 -16 -43 -2 -78 -5 -80 -7 -1 -1
-4 -16 -7 -32 -3 -28 -37 -51 -37 -26 0 6 -5 11 -11 11 -8 0 -7 -5 1 -15 10
-13 10 -19 -5 -35 -17 -19 -17 -21 1 -41 24 -27 66 -48 102 -53 36 -4 54 -14
47 -27 -4 -5 1 -9 9 -9 10 0 14 -8 12 -27 -2 -16 -4 -29 -5 -31 0 -1 -16 5
-33 15 -25 13 -29 18 -15 21 17 3 23 23 10 35 -3 4 -12 2 -18 -3 -16 -14 -75
-1 -75 16 0 10 -14 14 -51 14 -43 0 -50 -3 -45 -16 3 -9 6 -24 6 -35 0 -14 7
-19 26 -19 17 0 40 -15 72 -48 29 -30 60 -51 79 -55 32 -6 59 -39 48 -58 -4
-6 -20 -7 -36 -4 -20 5 -38 1 -56 -10 -24 -16 -25 -20 -19 -77 6 -56 10 -64
60 -115 51 -52 55 -53 94 -47 22 3 43 13 46 20 4 11 2 11 -13 2 -10 -6 -26 -8
-35 -5 -20 8 -21 53 -1 61 22 8 65 -11 65 -29 0 -30 36 -4 39 28 1 15 26 34
40 29 7 -2 17 1 20 7 15 24 41 0 42 -40 2 -55 2 -56 17 -71 11 -11 16 -10 26
5 7 9 23 17 34 17 25 0 41 25 34 52 -3 11 4 28 17 42 12 13 21 30 19 37 -2 8
3 13 10 11 6 -1 12 4 12 12 0 9 -8 12 -25 8 -24 -4 -33 7 -18 22 11 11 15 58
5 52 -6 -3 -13 6 -17 22 -7 28 -28 52 -61 70 -18 9 -20 20 -18 76 1 37 -2 69
-7 72 -5 3 -9 16 -9 30 0 13 -4 24 -10 24 -5 0 -10 9 -10 21 0 15 5 19 15 15
12 -4 15 2 12 35 -2 22 -10 45 -18 50 -11 8 -10 9 6 7 28 -4 45 9 45 34 0 14
5 18 15 14 8 -3 15 -2 15 2 -1 12 -75 43 -78 32 -2 -5 -12 -20 -22 -32 l-19
-23 -1 29 c0 21 4 27 15 22 9 -3 15 0 15 9 0 8 5 15 11 15 5 0 7 5 4 10 -5 8
-11 7 -20 0 -18 -15 -35 -4 -35 21 0 22 -29 26 -48 7z m-6 -106 c-13 -13 -18
-14 -28 -4 -10 10 -8 14 10 18 12 4 22 11 23 18 0 6 3 5 6 -2 3 -8 -2 -21 -11
-30z m63 -34 c5 -13 5 -27 0 -32 -11 -12 -16 -7 -24 27 -9 33 12 38 24 5z
m-208 -111 c0 -4 -2 -21 -6 -38 -5 -24 -11 -29 -28 -27 -19 3 -22 9 -20 43 1
22 2 41 2 42 3 5 51 -13 52 -20z m87 -139 c2 -13 -3 -18 -17 -18 -12 0 -21 -5
-21 -11 0 -18 71 -78 86 -72 10 4 12 0 8 -12 -5 -13 -14 -15 -36 -11 -47 9
-83 43 -84 79 0 18 -4 39 -8 48 -6 13 0 16 31 15 27 -1 39 -6 41 -18z m42
-158 c0 -5 -7 -10 -15 -10 -8 0 -15 5 -15 10 0 6 7 10 15 10 8 0 15 -4 15 -10z
m57 -14 c4 -4 1 -11 -7 -16 -22 -14 -30 -12 -30 9 0 19 21 23 37 7z m-27 -116
c0 -5 -2 -10 -4 -10 -3 0 -8 5 -11 10 -3 6 -1 10 4 10 6 0 11 -4 11 -10z"/>
<path d="M6711 7637 c-1 -10 -5 -15 -11 -12 -6 4 -7 -1 -3 -11 6 -15 7 -15 15
0 5 9 7 22 4 29 -2 7 -5 4 -5 -6z"/>
<path d="M5426 7597 c-3 -12 0 -25 7 -29 20 -13 25 -9 25 16 0 32 -24 41 -32
13z"/>
<path d="M4928 7604 c-9 -14 7 -50 16 -36 4 7 3 19 -2 28 -5 9 -12 13 -14 8z"/>
<path d="M6616 7584 c-9 -24 -7 -27 9 -10 17 17 19 26 6 26 -5 0 -12 -7 -15
-16z"/>
<path d="M4890 7555 c7 -9 15 -13 17 -11 7 7 -7 26 -19 26 -6 0 -6 -6 2 -15z"/>
<path d="M4802 7543 c2 -10 14 -19 26 -21 21 -3 22 -2 10 17 -16 25 -41 28
-36 4z"/>
<path d="M4460 7546 c0 -2 7 -6 15 -10 8 -3 15 -1 15 4 0 6 -7 10 -15 10 -8 0
-15 -2 -15 -4z"/>
<path d="M5475 7540 c4 -6 -4 -9 -17 -7 -16 1 -26 -5 -33 -21 -7 -15 -16 -21
-28 -18 -10 2 -21 -2 -24 -10 -4 -12 -8 -11 -20 6 -11 16 -18 18 -28 10 -16
-13 -13 -43 4 -46 7 -2 7 0 1 3 -8 3 -7 9 1 19 10 12 16 9 36 -21 13 -19 28
-34 32 -32 5 1 9 -2 9 -8 1 -5 -6 -9 -15 -8 -11 1 -12 -2 -4 -10 7 -7 14 -7
23 1 7 5 16 10 20 9 3 -1 10 2 15 7 4 5 3 6 -3 3 -7 -4 -17 0 -24 8 -7 8 -16
13 -20 10 -5 -3 -12 0 -16 7 -4 7 -4 10 1 6 4 -4 17 -3 28 3 13 7 17 7 13 1
-3 -6 -1 -14 6 -18 7 -4 10 -4 6 1 -10 11 10 45 26 45 9 0 12 7 9 19 -3 10 0
22 6 25 14 9 14 26 0 26 -5 0 -7 -4 -4 -10z"/>
<path d="M4742 7477 c-14 -16 -3 -34 23 -39 11 -2 20 -11 20 -20 0 -9 4 -20 8
-24 4 -4 7 2 7 14 0 14 7 22 22 24 35 5 35 28 0 23 -23 -2 -31 1 -35 16 -6 22
-30 25 -45 6z"/>
<path d="M5345 7430 c3 -5 11 -10 16 -10 6 0 7 5 4 10 -3 6 -11 10 -16 10 -6
0 -7 -4 -4 -10z"/>
<path d="M5577 7434 c-16 -16 -6 -34 19 -34 19 0 25 5 22 17 -3 19 -29 29 -41
17z"/>
<path d="M4650 7380 c0 -5 5 -10 10 -10 6 0 10 5 10 10 0 6 -4 10 -10 10 -5 0
-10 -4 -10 -10z"/>
<path d="M5620 7375 c-7 -8 -19 -15 -26 -15 -8 0 -14 -4 -14 -9 0 -5 -18 -12
-41 -16 -23 -4 -38 -12 -36 -18 7 -21 38 -19 59 3 20 21 37 22 101 4 24 -7 17
32 -10 51 -18 13 -22 13 -33 0z"/>
<path d="M9798 6983 c7 -3 16 -2 19 1 4 3 -2 6 -13 5 -11 0 -14 -3 -6 -6z"/>
<path d="M9797 6963 c-12 -12 -7 -33 8 -33 17 0 19 9 7 28 -5 7 -11 9 -15 5z"/>
<path d="M9835 6900 c-16 -7 -17 -9 -3 -9 9 -1 20 4 23 9 7 11 7 11 -20 0z"/>
<path d="M5076 6885 c4 -8 10 -15 15 -15 4 0 6 7 3 15 -4 8 -10 15 -15 15 -4
0 -6 -7 -3 -15z"/>
<path d="M9150 6806 c0 -9 7 -16 16 -16 9 0 25 -11 35 -24 13 -17 25 -22 40
-19 14 4 20 1 18 -8 -2 -8 9 -27 24 -43 19 -20 24 -32 16 -37 -15 -9 -2 -30
15 -23 7 3 16 -2 19 -10 8 -20 46 -21 61 -3 14 17 109 11 103 -7 -2 -6 -12
-11 -23 -11 -10 0 -19 -7 -19 -15 0 -9 8 -14 20 -13 11 1 14 0 8 -3 -7 -3 -13
-17 -13 -30 0 -23 9 -28 38 -25 6 1 12 -3 12 -9 0 -5 14 -10 31 -10 l31 0 -26
-34 c-14 -19 -26 -43 -27 -53 0 -10 -3 -13 -6 -6 -3 9 -18 4 -48 -17 -45 -31
-61 -37 -50 -20 3 6 1 10 -5 10 -6 0 -15 -11 -22 -25 -6 -13 -15 -22 -20 -19
-4 3 -6 10 -2 15 3 6 3 17 0 25 -6 17 -23 10 -66 -27 -23 -19 -23 -22 -7 -34
9 -7 17 -24 17 -39 0 -27 -13 -35 -26 -14 -5 8 -11 6 -20 -7 -11 -15 -16 -16
-29 -5 -13 11 -15 8 -15 -17 0 -16 -6 -37 -13 -47 -12 -16 -14 -16 -31 3 -22
25 -39 27 -55 7 -10 -12 -3 -17 43 -30 59 -17 87 -19 135 -10 26 5 31 11 31
34 l0 28 38 -14 c20 -7 44 -13 53 -14 9 0 20 -8 23 -17 5 -13 9 -14 19 -4 9 9
9 14 -3 21 -12 7 -12 12 -3 21 10 10 14 9 19 -4 3 -9 13 -17 20 -17 8 0 19
-11 24 -24 5 -13 14 -27 19 -31 6 -3 11 -10 11 -16 0 -16 -36 -10 -63 11 -30
24 -41 13 -27 -24 10 -28 20 -32 37 -15 8 8 15 5 26 -11 8 -12 20 -19 26 -16
6 4 25 -8 43 -25 21 -20 28 -33 21 -36 -7 -3 -13 -14 -13 -25 0 -15 5 -18 19
-13 11 3 22 1 26 -5 3 -5 -1 -10 -9 -10 -8 0 -18 -5 -22 -12 -5 -8 0 -9 17 -5
20 5 17 0 -16 -30 -22 -20 -39 -40 -38 -45 2 -4 -4 -8 -12 -8 -8 0 -15 -7 -15
-16 0 -8 4 -12 10 -9 5 3 20 8 32 10 l23 4 -24 -19 c-14 -12 -18 -20 -10 -20
21 0 111 98 103 111 -4 8 -3 9 5 5 15 -10 93 64 86 82 -3 8 0 10 6 6 6 -4 30
14 54 40 49 52 56 55 50 25 -3 -17 -2 -19 10 -9 11 9 12 16 2 31 -10 16 -9 21
3 29 17 11 36 7 33 -7 -1 -5 11 -9 26 -8 23 0 27 4 25 23 -2 21 23 44 43 41
21 -3 34 2 28 12 -4 6 -13 8 -21 5 -7 -3 -16 -1 -19 4 -4 6 -12 5 -19 -3 -8
-6 -12 -15 -10 -19 2 -4 0 -9 -6 -13 -6 -4 -7 -12 -3 -18 4 -7 0 -6 -10 2 -11
9 -17 10 -17 2 0 -16 -17 -14 -23 3 -3 8 1 13 11 12 9 0 21 9 27 22 5 12 15
22 22 22 14 0 27 19 19 27 -3 4 -14 -1 -23 -9 -10 -8 -33 -18 -51 -22 -28 -5
-33 -3 -30 12 2 11 14 18 33 20 17 2 35 10 42 19 10 12 7 20 -17 39 -15 13
-32 24 -38 24 -6 0 -12 5 -14 10 -2 6 -16 12 -31 14 -30 3 -50 16 -25 16 17 0
31 47 17 56 -5 3 -9 -2 -9 -10 0 -9 -7 -16 -15 -16 -8 0 -15 9 -15 20 0 25
-18 25 -66 3 -34 -17 -36 -17 -45 0 -6 9 -20 17 -32 16 -21 -1 -20 -2 3 -9 14
-4 18 -8 9 -9 -20 -1 -69 22 -69 32 0 5 9 5 20 2 11 -3 20 -4 20 0 0 15 -34
55 -47 55 -8 0 -12 4 -9 8 14 22 -38 51 -54 30 -10 -13 -50 4 -50 21 0 13 9
16 40 16 22 0 40 3 40 7 0 4 7 5 15 2 8 -4 15 -2 15 4 0 14 -38 22 -44 8 -3
-6 -5 -4 -5 4 3 45 0 50 -31 44 -19 -4 -30 -2 -30 5 0 6 -7 11 -15 11 -8 0
-19 9 -24 19 -12 22 -62 42 -88 35 -11 -3 -29 6 -47 24 -28 30 -28 30 -6 37
12 4 27 2 33 -4 17 -17 27 -13 27 13 0 27 -33 41 -75 30 -14 -3 -31 -2 -38 3
-6 6 -40 11 -74 12 -51 2 -63 -1 -63 -13z m270 -136 c0 -5 -4 -10 -10 -10 -5
0 -10 5 -10 10 0 6 5 10 10 10 6 0 10 -4 10 -10z m263 -326 c31 -2 55 -19 43
-31 -4 -4 -15 -2 -25 4 -11 7 -23 8 -34 1 -22 -12 -37 -2 -37 23 0 14 4 18 13
12 6 -4 25 -8 40 -9z m235 -50 c38 -18 40 -30 10 -40 -13 -4 -28 -14 -35 -23
-11 -14 -12 -14 -13 4 -1 11 -3 32 -5 48 -4 31 1 33 43 11z m-100 -67 c33 -22
40 -32 32 -42 -8 -10 -20 -10 -50 -3 -22 6 -40 14 -40 19 0 5 -7 6 -15 3 -20
-8 -19 10 1 30 8 9 12 21 8 27 -8 14 -2 10 64 -34z m88 -72 c1 -13 -2 -27 -7
-31 -17 -10 -21 3 -14 36 8 35 17 33 21 -5z m-61 -55 c-3 -5 -12 -7 -20 -3
-21 7 -19 13 6 13 11 0 18 -4 14 -10z m17 -22 c-7 -7 -12 -8 -12 -2 0 14 12
26 19 19 2 -3 -1 -11 -7 -17z m-212 -196 c0 -5 -12 -14 -27 -21 -28 -13 -28
-13 -9 8 20 22 36 27 36 13z"/>
<path d="M9426 6762 c-9 -16 10 -30 62 -47 28 -10 52 -21 52 -26 0 -16 58 -10
64 7 5 13 1 15 -18 10 -14 -3 -28 -2 -31 4 -3 5 -13 10 -22 10 -8 0 -28 11
-45 25 -30 25 -53 32 -62 17z"/>
<path d="M10007 6725 c-9 -8 -21 -30 -27 -50 -10 -31 -9 -38 14 -68 14 -19 24
-36 21 -38 -2 -3 5 -5 15 -5 18 0 18 2 3 18 -20 22 0 24 22 2 9 -9 14 -23 10
-32 -4 -11 -2 -12 7 -4 9 7 17 6 26 -4 11 -12 10 -14 -3 -14 -13 0 -10 -9 14
-38 29 -37 29 -40 13 -58 -16 -18 -16 -18 4 -1 18 15 23 15 41 2 11 -8 24 -11
28 -7 5 4 5 1 1 -5 -11 -20 15 -15 30 5 18 23 17 33 -1 26 -8 -4 -15 -2 -15 4
0 15 -31 24 -45 12 -9 -7 -16 -5 -26 7 -12 15 -12 16 3 10 10 -3 20 -1 24 5 4
6 3 8 -3 5 -6 -4 -13 0 -17 8 -7 19 8 19 28 0 8 -8 19 -15 25 -15 6 0 11 -5
11 -11 0 -6 7 -9 15 -5 8 3 19 -2 24 -12 7 -13 4 -23 -16 -44 -25 -26 -24 -48
3 -48 8 0 14 -6 14 -14 0 -8 23 -35 52 -60 29 -25 49 -48 46 -52 -4 -3 -15 3
-26 14 -11 11 -23 18 -26 16 -3 -2 -4 -1 -1 3 8 10 -46 63 -57 57 -5 -3 -1
-15 9 -27 10 -11 13 -17 6 -14 -6 4 -14 3 -18 -3 -3 -5 -1 -10 5 -10 6 0 8 -6
4 -12 -6 -10 -4 -10 7 0 16 15 33 16 23 0 -4 -6 -3 -8 2 -5 6 3 16 2 24 -3 12
-7 12 -12 -3 -28 -13 -14 -14 -21 -5 -30 9 -9 7 -15 -8 -27 -25 -19 -61 -11
-91 21 -13 14 -28 22 -34 19 -6 -4 -16 1 -23 11 -12 16 -14 16 -33 -3 -10 -10
-25 -17 -31 -15 -17 5 -15 -13 3 -28 23 -19 18 -27 -22 -37 -41 -9 -54 -29
-26 -40 10 -3 21 -12 26 -19 4 -7 27 -12 53 -12 26 0 51 -5 57 -11 13 -13 51
-15 43 -2 -3 4 -19 11 -36 14 -16 4 -30 11 -30 17 0 15 43 12 66 -5 25 -19 52
-19 56 1 3 13 5 13 23 0 20 -15 20 -15 -2 -16 -13 0 -23 -6 -23 -14 0 -14 29
-26 67 -26 27 0 39 -18 23 -33 -10 -9 -14 -9 -17 0 -2 7 -11 9 -20 6 -11 -4
-14 -2 -9 5 4 7 2 12 -3 12 -6 0 -11 -4 -11 -10 0 -5 -10 -10 -22 -10 -13 0
-29 -4 -37 -9 -12 -8 -12 -12 2 -25 8 -9 19 -16 22 -16 4 0 18 -9 32 -20 33
-26 63 -13 56 25 -7 36 21 44 53 14 13 -13 23 -28 20 -35 -2 -6 11 -17 30 -24
19 -8 34 -17 34 -21 0 -3 -19 -9 -42 -12 -36 -5 -46 -3 -61 14 -11 15 -21 18
-30 12 -17 -13 -25 -11 -83 16 -66 31 -81 54 -59 88 10 14 22 22 31 19 16 -6
19 10 3 20 -6 3 -16 1 -22 -5 -6 -6 -28 -11 -50 -11 -21 0 -45 -6 -53 -14 -19
-19 -18 -26 4 -26 9 0 28 -9 42 -20 25 -20 25 -20 5 -36 -18 -14 -22 -13 -40
11 -24 28 -50 33 -59 9 -5 -13 -9 -14 -21 -4 -8 7 -24 10 -36 7 -15 -4 -29 3
-47 23 -45 48 -51 58 -44 66 4 4 1 4 -6 0 -10 -6 -10 -11 -1 -22 10 -12 9 -13
-4 -8 -10 3 -17 -1 -20 -13 -3 -11 -3 -9 -2 4 5 55 -21 42 -123 -61 -56 -57
-98 -107 -94 -111 4 -5 2 -5 -4 -2 -6 4 -20 -3 -30 -14 -10 -11 -14 -19 -9
-17 6 2 10 -1 10 -7 0 -5 -4 -9 -9 -7 -11 4 -59 -28 -52 -35 7 -7 -17 -32 -26
-26 -15 8 -8 -5 9 -18 9 -8 14 -9 11 -4 -3 6 1 17 10 25 14 13 15 12 9 -3 -3
-9 -3 -19 2 -21 12 -8 10 27 -3 43 -15 19 1 12 51 -24 23 -16 42 -36 43 -42 0
-21 21 -15 27 7 3 11 9 17 15 14 5 -3 5 -11 -2 -19 -8 -10 -8 -15 1 -21 7 -4
15 -2 17 4 5 15 32 16 32 2 0 -5 -7 -10 -15 -10 -8 0 -15 -6 -15 -14 0 -22 16
-28 30 -11 17 20 27 19 33 -5 10 -40 -58 -54 -100 -20 -27 21 -87 27 -113 10
-12 -7 -12 -12 4 -29 11 -12 15 -27 11 -40 -7 -25 7 -28 25 -6 10 12 16 13 24
5 8 -8 6 -14 -6 -21 -19 -11 -24 -29 -8 -29 5 0 19 10 31 23 13 13 23 18 26
11 4 -12 83 2 81 15 -2 18 3 22 16 12 8 -7 12 -21 9 -31 -5 -19 -4 -19 28 -6
24 10 36 23 41 45 6 21 13 28 23 25 10 -4 15 0 15 12 0 13 7 8 25 -18 25 -37
25 -62 -1 -72 -8 -3 -14 -10 -14 -16 0 -7 6 -8 19 0 13 6 28 7 45 0 21 -8 28
-6 40 12 19 27 44 18 51 -19 11 -48 28 -73 48 -73 23 0 84 -18 107 -31 8 -5
35 -18 59 -29 24 -11 51 -29 59 -41 9 -13 20 -18 32 -14 10 3 21 1 25 -5 8
-13 42 -13 51 1 4 7 -1 10 -12 7 -26 -5 -84 49 -84 79 0 19 4 23 19 18 14 -4
21 0 26 16 4 12 3 24 -1 28 -13 9 -17 51 -5 51 6 0 8 7 5 15 -5 11 -2 13 10 9
9 -3 16 -2 16 3 0 17 53 36 93 34 21 -2 37 2 37 8 0 11 -33 16 -84 13 -25 -2
-28 0 -22 21 8 33 -4 41 -22 16 -14 -20 -16 -20 -25 -4 -7 13 -5 20 7 27 9 5
16 18 16 29 0 14 5 19 18 17 9 -2 16 -11 16 -21 -1 -10 5 -17 17 -17 11 0 16
-5 13 -13 -3 -9 6 -13 33 -12 33 0 38 4 41 25 5 37 52 94 65 81 8 -8 5 -15 -9
-26 -18 -14 -18 -15 -1 -29 18 -14 17 -16 -12 -37 -22 -16 -29 -28 -25 -42 4
-13 -3 -28 -21 -48 -23 -23 -32 -26 -47 -18 -10 6 -29 9 -41 6 -21 -3 -21 -4
6 -15 29 -12 37 -32 12 -32 -26 0 -16 -27 12 -33 36 -7 43 -2 43 29 0 18 5 24
18 22 10 -2 16 2 14 11 -3 12 0 12 12 1 23 -18 19 -40 -6 -41 -17 0 -19 -2 -8
-7 8 -4 15 -14 15 -22 0 -8 7 -13 15 -11 30 7 45 9 58 10 20 1 14 22 -8 28
-17 5 -26 26 -21 55 0 4 -7 5 -17 2 -9 -4 -4 5 12 18 35 29 72 27 54 -2 -16
-25 15 -72 44 -68 35 5 44 32 20 56 -12 12 -26 22 -31 22 -10 0 -23 41 -16 49
3 2 5 0 5 -6 0 -5 13 -8 29 -5 20 3 28 9 26 20 -2 10 -4 20 -4 25 -1 4 -6 7
-12 7 -6 0 -9 -6 -6 -14 4 -10 -4 -15 -28 -18 -31 -4 -32 -2 -24 20 12 32 12
32 -15 32 -13 0 -29 7 -36 15 -11 13 -8 15 19 15 21 0 31 5 31 15 0 8 -9 15
-20 15 -11 0 -20 5 -20 11 0 7 10 9 28 4 37 -9 48 -21 34 -38 -18 -21 -6 -25
59 -20 59 5 60 4 71 -25 10 -25 16 -29 46 -28 37 1 45 -7 59 -63 l8 -34 13 27
c7 15 8 25 3 22 -5 -3 -7 2 -4 12 2 10 -5 26 -17 37 -25 22 -50 28 -50 12 0
-7 -4 -6 -9 3 -6 8 -7 18 -4 22 6 11 -14 36 -40 50 -15 7 -18 7 -12 -2 6 -9 2
-9 -14 -1 -11 7 -21 16 -21 22 0 6 5 7 11 3 12 -7 1 18 -24 50 -16 21 -47 30
-47 14 0 -6 7 -8 15 -5 8 4 17 1 21 -5 4 -6 3 -8 -2 -5 -6 3 -16 2 -24 -3 -22
-14 -60 10 -60 38 0 19 -4 23 -19 19 -13 -3 -21 1 -24 14 -3 12 -1 17 6 12 7
-4 8 0 4 11 -4 10 -3 15 3 11 6 -3 10 0 10 7 0 7 -53 66 -118 131 -86 86 -121
114 -129 106 -8 -8 -13 -8 -17 0 -9 14 -49 14 -62 1 -5 -5 -20 -7 -32 -3 -23
6 -23 6 4 19 31 16 70 18 79 4 4 -6 10 -8 15 -5 5 3 2 14 -7 25 -9 10 -21 16
-27 12 -17 -10 -46 -10 -53 1 -3 6 -2 7 4 4 6 -4 19 0 29 9 18 14 18 15 -2 12
-11 -2 -22 2 -22 7 -1 6 3 11 8 11 6 1 15 2 21 3 5 0 7 7 3 14 -5 8 -3 8 9 -2
9 -7 14 -18 11 -23 -6 -9 297 -318 312 -318 4 0 1 7 -6 15 -7 9 -8 15 -2 15
18 0 21 -27 4 -51 -13 -20 -14 -22 -1 -12 13 11 20 9 37 -10 18 -19 19 -26 9
-37 -10 -12 -9 -12 6 -1 12 10 21 10 30 3 9 -8 16 -6 25 8 9 14 8 20 -1 23 -9
4 -9 6 1 6 6 1 12 8 12 16 0 8 7 15 15 15 13 0 15 -7 9 -35 -5 -27 -3 -36 10
-41 12 -5 13 -11 6 -24 -6 -10 -10 -23 -10 -28 0 -15 28 -23 36 -10 4 7 3 8
-4 4 -18 -11 -14 0 6 15 9 7 14 9 9 4 -10 -12 23 -45 46 -45 20 0 20 1 2 13
-19 15 -13 37 9 37 7 0 25 9 40 21 27 22 46 18 46 -9 0 -14 1 -14 13 0 20 25
43 28 80 9 26 -13 34 -14 30 -4 -3 8 2 13 16 13 14 0 21 6 21 20 0 11 6 18 13
16 6 -1 9 -1 4 1 -4 3 -5 9 -2 14 4 5 -1 6 -9 3 -9 -3 -16 -1 -16 5 0 6 5 11
10 11 6 0 10 9 10 20 0 23 -30 42 -49 31 -9 -6 -7 -10 8 -14 18 -4 19 -8 8
-31 -9 -20 -17 -25 -34 -21 -12 3 -24 0 -27 -8 -3 -8 -8 -7 -16 6 -6 9 -18 17
-26 17 -8 0 -34 9 -56 20 -32 15 -44 17 -49 8 -5 -7 -10 -10 -12 -8 -8 10 -67
120 -67 125 0 3 11 5 25 5 35 0 31 19 -8 35 -41 17 -55 33 -53 63 1 30 57 68
71 48 13 -17 71 -30 79 -17 4 5 -3 12 -14 16 -11 3 -25 15 -30 26 -14 26 4 61
27 52 12 -5 15 -2 10 9 -3 10 0 19 9 22 8 3 14 17 14 31 0 18 -5 25 -20 25
-11 0 -20 -5 -20 -12 0 -9 -3 -9 -12 0 -7 7 -19 12 -28 12 -9 0 -26 9 -37 20
-18 16 -22 17 -27 5 -3 -9 -18 -15 -36 -15 -20 0 -30 -5 -30 -15 0 -9 -9 -15
-24 -15 -26 0 -79 -43 -89 -72 -4 -11 -17 -18 -32 -18 -19 0 -25 -5 -23 -17 2
-14 -3 -17 -21 -15 -43 4 -53 20 -34 53 13 23 15 31 5 41 -9 9 -12 7 -12 -12
0 -22 -4 -25 -32 -24 -18 0 -41 -4 -50 -8 -14 -7 -18 -4 -18 12 0 11 3 19 8
19 19 -3 33 2 30 12 -2 6 -8 11 -13 11 -22 0 -85 43 -81 55 3 7 -11 22 -35 35
-22 13 -42 33 -45 46 -5 18 -9 20 -20 11 -13 -11 -19 -5 -14 16 1 5 -2 6 -7 2
-4 -5 -8 -17 -8 -28 0 -10 -4 -18 -10 -16 -5 1 -10 12 -9 24 0 12 -4 20 -8 17
-4 -3 -8 0 -8 6 0 7 7 9 16 6 30 -12 78 74 51 91 -6 3 -7 1 -3 -5 4 -7 1 -12
-7 -12 -20 0 -28 25 -14 39 9 10 6 10 -14 3 -39 -15 -93 -1 -97 25 -2 12 -14
29 -28 38 -22 14 -25 14 -30 0 -6 -14 -8 -13 -20 2 -7 10 -14 14 -14 10 0 -4
-10 -3 -22 3 -22 11 -22 11 -4 -4 16 -13 17 -19 8 -28 -10 -10 -15 -10 -23 2
-9 14 -7 39 7 74 8 21 -29 22 -49 1z m247 -216 c-8 -14 -24 -10 -24 6 0 9 6
12 15 9 8 -4 12 -10 9 -15z m296 -289 c0 -5 -2 -10 -4 -10 -3 0 -8 5 -11 10
-3 6 -1 10 4 10 6 0 11 -4 11 -10z m-375 -20 c3 -5 1 -10 -4 -10 -6 0 -11 5
-11 10 0 6 2 10 4 10 3 0 8 -4 11 -10z m469 -55 c3 -8 1 -15 -4 -15 -6 0 -10
7 -10 15 0 8 2 15 4 15 2 0 6 -7 10 -15z m-403 -12 c22 -11 28 -18 19 -21 -8
-3 -17 -8 -20 -13 -8 -11 -52 29 -45 41 8 13 6 13 46 -7z m489 -13 c0 -5 -4
-10 -10 -10 -5 0 -10 5 -10 10 0 6 5 10 10 10 6 0 10 -4 10 -10z m-620 -10
c12 -8 11 -10 -7 -10 -13 0 -23 5 -23 10 0 13 11 13 30 0z m57 4 c-3 -3 -12
-4 -19 -1 -8 3 -5 6 6 6 11 1 17 -2 13 -5z m193 -24 c0 -17 -22 -22 -36 -8
-12 12 -10 14 11 16 14 1 25 -2 25 -8z m360 -6 c0 -8 -4 -12 -10 -9 -5 3 -10
10 -10 16 0 5 5 9 10 9 6 0 10 -7 10 -16z m30 -4 c0 -5 -4 -10 -10 -10 -5 0
-10 5 -10 10 0 6 5 10 10 10 6 0 10 -4 10 -10z m-310 -4 c0 -3 -4 -8 -10 -11
-5 -3 -10 -1 -10 4 0 6 5 11 10 11 6 0 10 -2 10 -4z m-105 -24 c-3 -3 -11 0
-18 7 -9 10 -8 11 6 5 10 -3 15 -9 12 -12z m130 8 c3 -5 1 -10 -4 -10 -6 0
-11 5 -11 10 0 6 2 10 4 10 3 0 8 -4 11 -10z m361 -7 c8 -12 9 -22 3 -30 -7
-8 -4 -13 9 -17 24 -8 28 -64 6 -73 -20 -7 -28 2 -29 35 0 25 -3 27 -37 24
-41 -4 -54 16 -18 25 11 3 17 9 14 14 -6 10 16 38 30 39 5 0 15 -8 22 -17z
m-371 -53 c3 -5 1 -10 -4 -10 -6 0 -11 5 -11 10 0 6 2 10 4 10 3 0 8 -4 11
-10z m-621 -21 c-3 -5 -10 -7 -15 -3 -5 3 -7 10 -3 15 3 5 10 7 15 3 5 -3 7
-10 3 -15z m486 -9 c0 -9 -47 -19 -55 -12 -3 3 0 11 5 18 11 12 50 8 50 -6z
m220 -5 c0 -9 -6 -12 -15 -9 -8 4 -15 10 -15 15 0 5 7 9 15 9 8 0 15 -7 15
-15z m224 -4 c3 -4 -6 -13 -20 -20 -33 -15 -33 -14 -27 9 5 20 37 28 47 11z
m-920 -9 c3 -5 -1 -9 -9 -9 -8 0 -12 4 -9 9 3 4 7 8 9 8 2 0 6 -4 9 -8z m926
-27 c11 -13 10 -14 -4 -9 -9 3 -16 10 -16 15 0 13 6 11 20 -6z m-35 -15 c3 -5
1 -10 -4 -10 -6 0 -11 5 -11 10 0 6 2 10 4 10 3 0 8 -4 11 -10z m-800 -30
c-27 -12 -35 -12 -35 0 0 6 12 10 28 9 24 0 25 -1 7 -9z m225 0 c0 -5 -7 -10
-15 -10 -8 0 -15 5 -15 10 0 6 7 10 15 10 8 0 15 -4 15 -10z m874 -16 c5 -12
2 -15 -10 -10 -8 3 -18 6 -20 6 -3 0 -2 5 1 10 9 15 22 12 29 -6z m-1011 -17
c58 -2 62 -4 65 -27 2 -14 -1 -20 -5 -15 -4 6 -34 11 -65 12 -52 1 -58 -1 -58
-18 0 -11 4 -18 9 -14 14 8 25 -15 13 -27 -6 -6 -22 -8 -36 -4 -24 6 -26 11
-26 62 0 52 1 54 21 44 11 -7 49 -12 82 -13z m255 -12 c-1 -37 -7 -42 -25 -24
-7 7 -7 17 1 35 16 34 26 30 24 -11z m304 5 c18 -17 19 -20 5 -20 -9 0 -21 9
-27 20 -6 11 -8 20 -5 20 3 0 15 -9 27 -20z m382 5 c3 -8 1 -15 -4 -15 -6 0
-10 7 -10 15 0 8 2 15 4 15 2 0 6 -7 10 -15z m-644 -11 c0 -2 -7 -4 -15 -4 -8
0 -15 4 -15 10 0 5 7 7 15 4 8 -4 15 -8 15 -10z m577 1 c8 -22 -6 -33 -17 -15
-13 20 -12 30 0 30 6 0 13 -7 17 -15z m-332 -55 c3 -6 18 -7 33 -4 27 7 27 7
8 -14 -14 -16 -26 -20 -45 -15 -33 8 -35 9 -28 28 7 17 23 20 32 5z m-265 -32
c0 -6 -6 -5 -15 2 -8 7 -15 14 -15 16 0 2 7 1 15 -2 8 -4 15 -11 15 -16z m79
-34 c8 -16 18 -30 22 -32 4 -2 5 -10 2 -18 -7 -20 -20 -9 -43 39 -24 48 -24
50 -7 45 6 -3 18 -18 26 -34z m144 -20 c3 -19 0 -24 -17 -24 -17 0 -18 2 -6
10 11 7 11 10 2 10 -7 0 -11 4 -7 9 3 5 1 12 -5 16 -5 3 -10 13 -10 22 0 14 2
14 19 -1 10 -9 21 -28 24 -42z m-228 7 c-3 -12 -13 -21 -21 -21 -18 0 -18 5 3
30 20 23 27 20 18 -9z m-129 -39 c-8 -9 -19 -13 -22 -9 -10 9 16 38 28 31 6
-4 4 -13 -6 -22z m-322 -28 c3 -8 2 -12 -4 -9 -6 3 -10 10 -10 16 0 14 7 11
14 -7z m384 0 c14 -15 14 -16 -3 -13 -10 2 -20 10 -23 17 -5 17 6 15 26 -4z
m713 -1 c13 -16 12 -17 -3 -4 -17 13 -22 21 -14 21 2 0 10 -8 17 -17z m-1048
-10 c-7 -2 -19 -2 -25 0 -7 3 -2 5 12 5 14 0 19 -2 13 -5z m327 -33 c11 -21
40 -17 40 6 0 8 5 14 11 14 6 0 9 -7 5 -15 -3 -9 0 -15 10 -15 8 0 12 5 9 10
-10 16 48 12 73 -6 26 -18 32 -84 8 -84 -8 0 -18 5 -21 10 -3 6 -22 10 -42 10
-30 0 -35 3 -30 20 3 11 1 20 -4 20 -5 0 -9 -5 -9 -11 0 -6 -9 -8 -22 -4 -18
5 -19 4 -8 -4 8 -5 12 -12 10 -15 -10 -10 -69 54 -64 69 8 21 21 19 34 -5z
m-68 -53 c7 -7 21 -16 31 -20 9 -3 17 -11 17 -18 0 -7 -7 -8 -17 -4 -10 3 -30
9 -45 12 -31 6 -47 43 -18 43 10 0 25 -6 32 -13z"/>
<path d="M10316 5574 c-9 -23 -7 -34 4 -34 5 0 7 7 4 15 -5 11 -2 13 10 9 9
-3 16 -2 16 4 0 17 -28 22 -34 6z"/>
<path d="M9196 6714 c-8 -21 1 -34 23 -34 28 0 31 10 10 31 -23 23 -25 23 -33
3z"/>
<path d="M9834 6695 c-19 -14 -19 -14 2 -15 12 0 21 6 21 15 0 18 1 18 -23 0z"/>
<path d="M10851 6631 c-9 -6 -10 -11 -2 -15 15 -10 53 3 46 15 -8 11 -26 11
-44 0z"/>
<path d="M9929 6599 c5 -6 7 -19 4 -28 -5 -13 -3 -14 8 -3 11 10 10 15 -4 27
-9 8 -13 10 -8 4z"/>
<path d="M9961 6594 c6 -7 16 -11 21 -8 11 7 3 17 -18 20 -12 2 -13 -1 -3 -12z"/>
<path d="M9390 6590 c0 -5 5 -10 11 -10 5 0 7 5 4 10 -3 6 -8 10 -11 10 -2 0
-4 -4 -4 -10z"/>
<path d="M9680 6590 c0 -5 5 -10 11 -10 5 0 7 5 4 10 -3 6 -8 10 -11 10 -2 0
-4 -4 -4 -10z"/>
<path d="M9127 6579 c7 -7 15 -10 18 -7 3 3 -2 9 -12 12 -14 6 -15 5 -6 -5z"/>
<path d="M8751 6564 c0 -11 3 -14 6 -6 3 7 2 16 -1 19 -3 4 -6 -2 -5 -13z"/>
<path d="M9650 6560 c-8 -5 -11 -12 -8 -16 10 -9 38 3 38 16 0 12 -10 13 -30
0z"/>
<path d="M9712 6561 c2 -7 7 -12 11 -12 12 1 9 15 -3 20 -7 2 -11 -2 -8 -8z"/>
<path d="M9080 6550 c0 -5 -12 -13 -27 -16 -16 -4 -34 -11 -40 -17 -9 -6 -17
-6 -26 2 -16 13 -27 5 -27 -20 0 -10 -7 -22 -16 -27 -17 -9 -12 -52 6 -52 5 0
6 -7 3 -17 -4 -9 -2 -14 3 -10 6 3 15 -3 22 -13 9 -15 8 -21 -5 -32 -14 -11
-15 -10 -9 8 4 15 2 24 -9 28 -8 3 -15 12 -15 21 0 8 -4 15 -10 15 -5 0 -10
11 -10 24 0 14 -4 27 -9 30 -5 4 -6 -9 -1 -28 4 -19 4 -40 -1 -47 -5 -8 -8
-23 -8 -34 l0 -20 9 20 c8 19 9 18 9 -4 1 -24 1 -24 17 -5 15 18 15 18 11 -4
-5 -21 -3 -23 26 -16 18 3 40 11 50 16 17 9 17 10 -1 36 -34 50 -35 52 -8 52
21 0 25 -4 24 -30 -1 -21 6 -36 20 -46 12 -8 28 -22 37 -31 14 -14 18 -14 26
-2 7 11 11 11 17 2 4 -7 20 -14 35 -15 15 -1 29 -8 31 -15 3 -7 21 -13 40 -13
l34 0 -5 63 c-5 62 -4 62 14 39 10 -13 22 -20 26 -16 11 11 8 44 -3 44 -5 0
-10 15 -10 34 0 38 -12 51 -57 59 -34 7 -51 -11 -30 -32 8 -8 5 -11 -11 -11
-12 0 -22 5 -22 11 0 6 -6 9 -14 6 -16 -6 -36 11 -36 31 0 14 -27 41 -42 42
-5 0 -8 -4 -8 -10z m0 -64 c0 -7 7 -19 15 -26 13 -11 20 -10 41 1 23 12 28 11
39 -4 7 -10 11 -27 8 -37 -4 -15 -11 -18 -36 -13 -23 5 -28 3 -22 -7 6 -10 4
-12 -9 -7 -10 4 -22 7 -28 7 -6 0 -8 7 -4 15 3 8 1 15 -5 15 -12 0 -31 49 -23
61 8 14 24 11 24 -5z m-66 -5 c3 -5 -4 -11 -16 -14 -25 -7 -33 -3 -23 12 8 13
32 14 39 2z m210 -46 c-4 -8 -11 -15 -16 -15 -6 0 -5 6 2 15 7 8 14 15 16 15
2 0 1 -7 -2 -15z"/>
<path d="M8795 6528 l-20 -21 24 13 c28 15 41 1 37 -40 -2 -14 -1 -17 1 -8 2
10 14 24 25 32 21 15 21 15 -6 22 -14 3 -26 10 -26 15 0 14 -13 9 -35 -13z"/>
<path d="M10001 6536 c-14 -17 46 -53 61 -38 8 8 8 15 -1 25 -16 21 -48 27
-60 13z m59 -22 c0 -8 -19 -13 -24 -6 -3 5 1 9 9 9 8 0 15 -2 15 -3z"/>
<path d="M10391 6506 c-13 -31 -15 -32 -39 -6 -17 19 -20 19 -33 4 -7 -9 -14
-23 -15 -33 -2 -13 0 -13 11 3 13 17 15 17 21 3 4 -11 17 -16 38 -15 17 1 39
-2 50 -7 17 -7 17 -6 5 16 -7 13 -14 30 -15 37 -4 26 -13 25 -23 -2z"/>
<path d="M8800 6500 c0 -5 5 -10 10 -10 6 0 10 5 10 10 0 6 -4 10 -10 10 -5 0
-10 -4 -10 -10z"/>
<path d="M9700 6494 c0 -8 5 -12 10 -9 6 3 10 10 10 16 0 5 -4 9 -10 9 -5 0
-10 -7 -10 -16z"/>
<path d="M9940 6491 c-10 -21 -4 -51 11 -51 5 0 9 9 9 19 0 11 5 21 12 23 13
5 2 28 -12 28 -5 0 -14 -9 -20 -19z"/>
<path d="M10902 6473 c2 -23 8 -28 26 -25 13 1 30 -5 38 -13 21 -21 41 -19 49
5 16 50 -31 82 -61 43 -13 -17 -15 -17 -25 0 -15 26 -31 20 -27 -10z"/>
<path d="M10070 6479 c0 -6 7 -8 16 -5 15 6 15 4 3 -11 -12 -14 -12 -16 0 -8
11 6 13 4 7 -11 -7 -18 -6 -18 10 -2 14 14 15 20 4 32 -14 18 -40 21 -40 5z"/>
<path d="M10544 6468 c-4 -6 -3 -8 4 -4 6 3 13 -2 15 -11 4 -14 5 -13 6 5 1
23 -13 30 -25 10z"/>
<path d="M10600 6470 c0 -5 5 -10 10 -10 6 0 10 5 10 10 0 6 -4 10 -10 10 -5
0 -10 -4 -10 -10z"/>
<path d="M9986 6455 c-6 -17 9 -29 24 -20 14 9 12 22 -4 28 -8 3 -17 -1 -20
-8z"/>
<path d="M10030 6445 c0 -8 7 -15 15 -15 8 0 15 7 15 15 0 8 -7 15 -15 15 -8
0 -15 -7 -15 -15z"/>
<path d="M11347 6448 c-22 -12 -22 -47 1 -55 9 -3 25 -13 35 -22 17 -14 20
-14 33 4 19 25 18 39 -3 57 -26 22 -47 27 -66 16z"/>
<path d="M8840 6421 c0 -6 5 -13 10 -16 6 -3 10 1 10 9 0 9 -4 16 -10 16 -5 0
-10 -4 -10 -9z"/>
<path d="M9380 6420 c-11 -6 -12 -12 -4 -20 14 -14 44 -2 37 16 -6 16 -12 17
-33 4z"/>
<path d="M10435 6420 c3 -5 11 -10 16 -10 6 0 7 5 4 10 -3 6 -11 10 -16 10 -6
0 -7 -4 -4 -10z"/>
<path d="M10703 6405 c-8 -9 -9 -16 -3 -20 6 -3 13 1 16 10 9 21 2 26 -13 10z"/>
<path d="M9990 6401 c0 -5 5 -13 10 -16 6 -3 10 -2 10 4 0 5 -4 13 -10 16 -5
3 -10 2 -10 -4z"/>
<path d="M10456 6384 c-8 -21 -8 -24 3 -24 5 0 11 9 14 20 6 24 -8 27 -17 4z"/>
<path d="M11030 6390 c0 -4 7 -11 16 -14 22 -9 26 -8 22 6 -5 13 -38 20 -38 8z"/>
<path d="M11150 6385 c0 -8 -7 -15 -15 -15 -8 0 -15 5 -15 10 0 6 -5 10 -12
10 -9 0 -9 -3 0 -12 7 -7 12 -22 12 -35 0 -13 5 -23 10 -23 6 0 10 -4 10 -10
0 -5 -7 -10 -15 -10 -9 0 -18 -8 -22 -17 -3 -10 -15 -25 -26 -35 -17 -13 -19
-19 -9 -31 7 -8 10 -21 6 -30 -3 -9 3 -24 15 -36 12 -12 21 -29 22 -38 0 -14
2 -15 6 -3 4 8 15 21 26 29 19 14 19 14 -4 27 -13 7 -19 13 -13 14 7 0 14 9
17 20 3 11 11 20 17 20 7 0 10 -7 6 -16 -5 -13 -1 -15 19 -12 27 6 35 -6 10
-16 -8 -3 -15 -10 -15 -16 0 -7 7 -7 21 1 15 8 24 8 32 0 15 -15 27 -14 27 3
0 8 5 16 12 18 8 3 8 12 -2 35 -11 24 -22 32 -47 35 -18 2 -39 1 -45 -3 -19
-12 -24 -3 -20 35 3 24 9 36 19 36 11 0 13 5 8 18 -4 9 -10 27 -12 40 -6 25
-23 30 -23 7z m-21 -166 c-16 -10 -23 -4 -14 10 3 6 11 8 17 5 6 -4 5 -9 -3
-15z"/>
<path d="M10137 6369 c-12 -9 -19 -21 -15 -25 5 -4 17 1 28 11 11 10 23 15 26
12 9 -9 -32 -57 -42 -49 -5 4 -2 -1 5 -10 14 -19 22 -23 19 -10 -2 13 14 42
24 42 5 0 7 -4 3 -9 -11 -18 18 -24 31 -7 16 22 8 44 -14 42 -9 0 -16 4 -15
10 3 17 -26 13 -50 -7z"/>
<path d="M9910 6370 c0 -5 7 -10 16 -10 8 0 12 5 9 10 -3 6 -10 10 -16 10 -5
0 -9 -4 -9 -10z"/>
<path d="M11250 6371 c0 -6 5 -13 10 -16 6 -3 10 1 10 9 0 9 -4 16 -10 16 -5
0 -10 -4 -10 -9z"/>
<path d="M10715 6350 c-3 -5 -1 -10 4 -10 6 0 11 5 11 10 0 6 -2 10 -4 10 -3
0 -8 -4 -11 -10z"/>
<path d="M8870 6339 c0 -5 5 -7 10 -4 6 3 10 8 10 11 0 2 -4 4 -10 4 -5 0 -10
-5 -10 -11z"/>
<path d="M10017 6320 c-15 -29 -15 -31 0 -28 24 5 40 35 26 49 -8 8 -15 2 -26
-21z"/>
<path d="M11070 6334 c0 -8 5 -12 10 -9 6 3 10 10 10 16 0 5 -4 9 -10 9 -5 0
-10 -7 -10 -16z"/>
<path d="M11445 6309 c4 -13 11 -26 16 -29 4 -3 -6 -12 -24 -19 -39 -18 -48
-30 -37 -52 7 -13 20 -16 59 -13 37 3 50 0 55 -11 9 -23 25 -18 38 13 20 46
18 63 -5 56 -13 -4 -17 -2 -13 5 4 6 0 14 -8 17 -9 3 -16 14 -16 24 0 11 -7
18 -17 18 -10 0 -26 3 -37 7 -16 7 -17 5 -11 -16z"/>
<path d="M11670 6311 c0 -11 4 -21 9 -21 18 0 21 18 6 30 -13 10 -15 9 -15 -9z"/>
<path d="M1112 6300 c-17 -28 -9 -38 30 -35 34 1 39 15 16 42 -15 19 -31 16
-46 -7z"/>
<path d="M1009 6274 c-7 -8 -9 -18 -5 -21 4 -4 11 -1 16 7 8 13 10 12 10 -2 0
-10 5 -18 11 -18 6 0 9 7 5 15 -3 8 0 15 6 15 6 0 8 3 4 7 -12 13 -35 11 -47
-3z"/>
<path d="M10078 6262 c-26 -31 -16 -44 13 -16 16 15 29 28 29 29 0 8 -33 -2
-42 -13z"/>
<path d="M11705 6270 c3 -5 13 -10 21 -10 8 0 14 5 14 10 0 6 -9 10 -21 10
-11 0 -17 -4 -14 -10z"/>
<path d="M9190 6256 c0 -9 5 -16 10 -16 6 0 10 4 10 9 0 6 -4 13 -10 16 -5 3
-10 -1 -10 -9z"/>
<path d="M11317 6255 c6 -17 25 -15 31 3 2 7 -5 12 -17 12 -14 0 -19 -5 -14
-15z"/>
<path d="M1140 6240 c0 -5 5 -10 10 -10 6 0 10 5 10 10 0 6 -4 10 -10 10 -5 0
-10 -4 -10 -10z"/>
<path d="M1261 6224 c0 -11 3 -14 6 -6 3 7 2 16 -1 19 -3 4 -6 -2 -5 -13z"/>
<path d="M10206 6231 c14 -15 64 -25 64 -13 0 10 -32 22 -59 22 -10 0 -11 -3
-5 -9z"/>
<path d="M8108 6223 c-22 -5 -23 -36 -3 -53 8 -7 15 -19 15 -26 0 -12 4 -12
28 0 49 25 56 41 31 65 -22 21 -36 23 -71 14z"/>
<path d="M10025 6211 c-3 -5 -1 -12 5 -16 5 -3 10 1 10 9 0 18 -6 21 -15 7z"/>
<path d="M1100 6195 c7 -8 16 -15 20 -15 4 0 10 7 14 15 4 11 -2 15 -21 15
-21 0 -24 -2 -13 -15z"/>
<path d="M1280 6200 c0 -6 5 -10 11 -10 5 0 7 -5 3 -12 -4 -7 -3 -8 4 -4 16
10 15 23 -3 30 -8 3 -15 1 -15 -4z"/>
<path d="M11597 6175 c-4 -8 -2 -17 3 -20 6 -4 10 3 10 14 0 25 -6 27 -13 6z"/>
<path d="M11670 6165 c0 -8 5 -15 10 -15 6 0 10 7 10 15 0 8 -4 15 -10 15 -5
0 -10 -7 -10 -15z"/>
<path d="M1180 6160 c0 -6 7 -13 15 -16 8 -4 13 -10 10 -14 -3 -4 2 -13 10
-20 12 -10 15 -9 15 8 0 21 -24 52 -41 52 -5 0 -9 -5 -9 -10z"/>
<path d="M9360 6145 c0 -8 9 -15 20 -15 11 0 20 -4 20 -10 0 -5 5 -10 10 -10
21 0 9 31 -16 40 -33 13 -34 13 -34 -5z"/>
<path d="M11620 6156 c0 -2 9 -6 20 -9 11 -3 20 -1 20 4 0 5 -9 9 -20 9 -11 0
-20 -2 -20 -4z"/>
<path d="M1290 6143 c0 -7 -9 -13 -20 -13 -21 0 -28 -20 -7 -21 6 0 24 -2 40
-4 15 -2 27 1 27 7 0 6 -3 8 -7 4 -4 -3 -13 4 -20 16 -7 13 -12 17 -13 11z"/>
<path d="M11320 6089 c0 -11 5 -17 10 -14 6 3 10 13 10 21 0 8 -4 14 -10 14
-5 0 -10 -9 -10 -21z"/>
<path d="M11440 6081 c0 -5 -13 -14 -30 -20 -37 -12 -38 -29 -5 -77 29 -42 31
-52 11 -60 -19 -7 -56 13 -56 31 0 15 -7 17 -63 19 -36 2 -59 -22 -34 -36 21
-11 13 -28 -14 -28 -10 0 -19 -4 -19 -10 0 -10 34 -15 84 -11 23 2 27 -1 23
-13 -10 -24 33 -47 76 -42 20 3 39 1 42 -4 4 -6 -8 -10 -24 -10 -17 0 -31 -4
-31 -10 0 -5 15 -10 34 -10 41 0 70 -35 54 -64 -8 -14 -12 -15 -18 -6 -5 8 -7
3 -7 -13 2 -30 14 -36 23 -12 5 12 10 13 20 4 12 -9 13 -6 9 22 -3 19 -3 28 1
22 4 -9 18 -11 46 -7 l40 7 -15 -24 c-11 -16 -13 -29 -7 -39 5 -7 5 -21 0 -30
-14 -26 14 -54 46 -46 15 4 30 3 33 -2 3 -6 31 -11 61 -13 54 -3 56 -2 108 46
28 26 52 53 52 59 0 6 -4 5 -9 -3 -5 -7 -14 -10 -20 -7 -7 4 -11 -1 -11 -12 0
-12 -9 -22 -22 -25 -30 -8 -35 -1 -9 13 29 15 26 38 -6 52 -22 9 -24 12 -10
15 28 7 19 21 -12 19 -42 -2 -46 -11 -22 -44 26 -38 27 -52 1 -52 -11 0 -20
-7 -20 -15 0 -18 -16 -20 -27 -2 -4 7 -20 18 -35 24 -26 12 -27 15 -21 64 6
47 4 52 -11 46 -10 -4 -24 -1 -32 8 -19 18 -34 19 -35 3 0 -7 -4 -3 -10 10 -7
19 -4 28 16 46 14 13 25 28 25 34 0 11 -46 25 -59 18 -4 -3 -20 -2 -36 2 -34
9 -45 52 -13 52 11 0 18 7 18 20 0 11 -7 20 -15 20 -22 0 -31 31 -14 44 8 6
15 21 16 34 2 19 -2 22 -32 22 -19 0 -35 -4 -35 -9z m5 -210 c3 -5 1 -12 -5
-16 -5 -3 -10 1 -10 9 0 18 6 21 15 7z m119 3 c9 -3 13 -10 10 -15 -8 -14 -21
-11 -28 6 -6 17 -4 18 18 9z"/>
<path d="M1310 6071 c0 -5 -3 -17 -7 -27 -4 -12 -3 -15 5 -10 8 4 16 -3 22
-19 12 -33 35 -28 36 8 1 14 -3 24 -7 21 -4 -2 -13 5 -19 16 -11 20 -30 27
-30 11z"/>
<path d="M11266 6065 c-3 -9 0 -15 9 -15 9 0 12 6 9 15 -4 8 -7 15 -9 15 -2 0
-5 -7 -9 -15z"/>
<path d="M9984 6058 c-3 -5 -3 -21 0 -34 5 -18 12 -24 23 -20 9 4 21 -1 27 -9
16 -22 46 -8 46 21 0 17 -6 24 -20 24 -11 0 -20 4 -20 9 0 12 -49 20 -56 9z"/>
<path d="M11079 5949 c13 -11 26 -17 29 -14 8 8 -20 35 -37 35 -12 -1 -11 -5
8 -21z"/>
<path d="M11863 5963 c-13 -2 -23 -11 -23 -19 0 -10 7 -13 23 -9 18 5 28 0 40
-18 15 -23 15 -24 -9 -19 -18 3 -24 0 -24 -13 0 -12 6 -16 20 -12 11 3 20 1
20 -4 0 -5 7 -9 15 -9 18 0 19 10 3 47 -6 15 -10 32 -9 37 2 9 -19 27 -29 24
-3 0 -15 -3 -27 -5z"/>
<path d="M1309 5950 c-1 -5 -2 -14 -3 -20 0 -5 -9 -15 -20 -23 -17 -13 -17
-15 14 -34 38 -24 46 -22 79 18 18 23 21 33 12 42 -9 9 -14 8 -21 -3 -8 -13
-12 -11 -25 8 -17 23 -34 29 -36 12z m31 -51 c0 -10 -4 -19 -9 -19 -12 0 -23
29 -15 41 8 14 24 0 24 -22z"/>
<path d="M10370 5949 c0 -8 7 -24 16 -35 14 -18 15 -18 8 6 -8 31 -24 50 -24
29z"/>
<path d="M1164 5932 c-41 -28 -11 -68 53 -70 49 -1 50 7 10 49 -29 30 -44 34
-63 21z"/>
<path d="M7731 5893 c-1 -23 5 -36 20 -43 11 -7 23 -9 26 -6 10 10 -7 56 -21
56 -8 0 -17 6 -19 13 -3 6 -6 -2 -6 -20z"/>
<path d="M10707 5850 c-3 -12 3 -29 15 -43 15 -17 17 -18 10 -3 -5 10 -7 27
-5 36 3 10 0 20 -5 24 -5 3 -12 -3 -15 -14z"/>
<path d="M11260 5860 c-9 -6 -10 -10 -3 -10 6 0 15 5 18 10 8 12 4 12 -15 0z"/>
<path d="M11230 5840 c0 -5 5 -10 11 -10 5 0 7 5 4 10 -3 6 -8 10 -11 10 -2 0
-4 -4 -4 -10z"/>
<path d="M11270 5831 c0 -16 -32 -22 -47 -9 -12 10 -18 9 -29 -7 -20 -27 -18
-31 25 -52 22 -10 47 -30 56 -45 22 -38 36 -35 29 5 -4 22 -3 28 4 18 5 -7 15
-12 22 -9 13 4 6 13 -39 51 -15 12 -20 24 -16 37 4 11 4 20 1 20 -3 0 -6 -4
-6 -9z"/>
<path d="M11150 5770 c0 -5 5 -10 10 -10 6 0 10 5 10 10 0 6 -4 10 -10 10 -5
0 -10 -4 -10 -10z"/>
<path d="M11063 5763 c-38 -7 -26 -40 21 -57 15 -5 17 -2 13 13 -3 14 -1 18 9
14 8 -3 14 -2 14 2 0 7 -27 36 -32 34 -2 -1 -13 -4 -25 -6z"/>
<path d="M10975 5750 c-3 -5 1 -10 9 -10 9 0 16 5 16 10 0 6 -4 10 -9 10 -6 0
-13 -4 -16 -10z"/>
<path d="M10900 5720 c0 -5 5 -10 11 -10 5 0 7 5 4 10 -3 6 -8 10 -11 10 -2 0
-4 -4 -4 -10z"/>
<path d="M1217 5706 c-3 -8 1 -20 9 -27 12 -10 18 -9 31 3 8 9 12 21 9 27 -10
16 -43 14 -49 -3z"/>
<path d="M11195 5704 l-30 -13 38 -1 c20 0 37 4 37 9 0 17 -14 19 -45 5z"/>
<path d="M11120 5700 c0 -5 5 -10 11 -10 5 0 7 5 4 10 -3 6 -8 10 -11 10 -2 0
-4 -4 -4 -10z"/>
<path d="M1150 5685 c0 -8 7 -15 15 -15 8 0 15 7 15 15 0 8 -7 15 -15 15 -8 0
-15 -7 -15 -15z"/>
<path d="M10904 5678 c-15 -18 -15 -20 -2 -9 16 12 22 9 54 -18 20 -18 38 -30
41 -27 8 8 -7 26 -23 26 -8 0 -13 4 -10 9 3 5 -1 14 -9 21 -8 7 -15 9 -15 4 0
-5 -4 -3 -8 4 -6 9 -13 7 -28 -10z"/>
<path d="M11060 5690 c0 -5 5 -10 10 -10 6 0 10 5 10 10 0 6 -4 10 -10 10 -5
0 -10 -4 -10 -10z"/>
<path d="M9493 5667 c0 -8 6 -14 14 -14 9 0 10 4 2 14 -6 7 -12 13 -14 13 -1
0 -2 -6 -2 -13z"/>
<path d="M11718 5673 c7 -3 16 -2 19 1 4 3 -2 6 -13 5 -11 0 -14 -3 -6 -6z"/>
<path d="M1661 5644 c0 -11 3 -14 6 -6 3 7 2 16 -1 19 -3 4 -6 -2 -5 -13z"/>
<path d="M7855 5620 c3 -5 -2 -10 -11 -10 -14 0 -15 -3 -7 -11 9 -9 16 -8 27
3 15 15 12 28 -6 28 -5 0 -6 -4 -3 -10z"/>
<path d="M11040 5611 c0 -14 23 -29 36 -24 23 9 16 28 -11 29 -14 1 -25 -1
-25 -5z"/>
<path d="M11164 5565 c-3 -8 1 -22 10 -31 15 -15 19 -15 42 1 24 16 25 17 7
30 -24 19 -52 19 -59 0z"/>
<path d="M10993 5554 c0 -7 4 -11 9 -8 4 3 8 0 8 -5 0 -6 8 -11 18 -11 13 0
14 2 4 9 -8 4 -12 12 -10 16 1 5 -4 9 -13 10 -9 2 -16 -3 -16 -11z"/>
<path d="M1740 5550 c0 -5 7 -10 16 -10 8 0 12 5 9 10 -3 6 -10 10 -16 10 -5
0 -9 -4 -9 -10z"/>
<path d="M11045 5550 c3 -5 8 -10 11 -10 2 0 4 5 4 10 0 6 -5 10 -11 10 -5 0
-7 -4 -4 -10z"/>
<path d="M10820 5535 c0 -8 5 -15 10 -15 6 0 10 7 10 15 0 8 -4 15 -10 15 -5
0 -10 -7 -10 -15z"/>
<path d="M9875 5490 c3 -5 13 -10 21 -10 8 0 14 5 14 10 0 6 -9 10 -21 10 -11
0 -17 -4 -14 -10z"/>
<path d="M10772 5475 c-11 -13 -10 -15 7 -15 10 0 21 7 25 15 7 19 -15 19 -32
0z"/>
<path d="M1780 5446 c0 -9 5 -16 10 -16 6 0 10 4 10 9 0 6 -4 13 -10 16 -5 3
-10 -1 -10 -9z"/>
<path d="M11355 5431 c-3 -5 -1 -12 5 -16 5 -3 10 1 10 9 0 18 -6 21 -15 7z"/>
<path d="M10582 5395 c-7 -14 -12 -30 -12 -35 0 -16 30 -12 36 4 3 8 12 12 20
9 8 -3 11 -9 8 -14 -3 -5 1 -9 10 -9 8 0 21 -3 29 -6 9 -3 22 7 36 29 24 38
26 47 11 47 -5 0 -10 -6 -10 -14 0 -25 -48 -29 -77 -6 -33 26 -37 25 -51 -5z"/>
<path d="M11333 5394 c-15 -16 -16 -24 -4 -24 8 0 24 30 19 35 -2 2 -9 -3 -15
-11z"/>
<path d="M10080 5366 c0 -20 30 -48 30 -28 0 4 3 17 6 30 5 18 2 22 -15 22
-15 0 -21 -6 -21 -24z"/>
<path d="M10410 5371 c0 -14 28 -33 40 -26 20 12 10 35 -15 35 -14 0 -25 -4
-25 -9z"/>
<path d="M10490 5344 c0 -8 5 -24 10 -35 15 -27 4 -41 -20 -27 -24 15 -38 3
-23 -21 9 -14 9 -21 0 -30 -8 -8 -7 -11 6 -11 9 0 17 6 17 14 0 23 14 26 49
13 18 -7 31 -18 31 -29 0 -31 34 -87 53 -88 10 0 15 5 12 11 -4 6 -8 26 -9 45
-1 32 1 35 21 31 30 -6 30 11 -1 22 -13 5 -26 19 -29 31 -4 17 -10 20 -31 14
-20 -5 -31 -1 -46 16 -11 13 -20 31 -20 42 0 10 -4 18 -10 18 -5 0 -10 -7 -10
-16z"/>
<path d="M11310 5333 c0 -8 7 -13 18 -11 9 2 17 7 17 12 0 5 -8 10 -17 12 -10
1 -18 -4 -18 -13z"/>
<path d="M10545 5329 c-10 -15 3 -25 16 -12 7 7 7 13 1 17 -6 3 -14 1 -17 -5z"/>
<path d="M11361 5306 c-10 -12 -8 -13 8 -9 12 3 21 9 21 14 0 14 -16 11 -29
-5z"/>
<path d="M10108 5293 c7 -3 16 -2 19 1 4 3 -2 6 -13 5 -11 0 -14 -3 -6 -6z"/>
<path d="M9920 5234 c0 -8 5 -12 10 -9 6 4 8 11 5 16 -9 14 -15 11 -15 -7z"/>
<path d="M10545 5180 c3 -5 8 -10 11 -10 2 0 4 5 4 10 0 6 -5 10 -11 10 -5 0
-7 -4 -4 -10z"/>
<path d="M10670 5168 c0 -17 3 -19 12 -10 7 7 20 12 30 12 10 0 18 5 18 10 0
6 -13 10 -30 10 -24 0 -30 -4 -30 -22z"/>
<path d="M9620 5160 c-8 -16 -8 -20 4 -20 16 0 29 27 16 35 -5 3 -14 -4 -20
-15z"/>
<path d="M10846 5154 c-10 -25 -7 -44 9 -60 8 -9 15 -11 15 -5 0 5 -4 13 -10
16 -5 3 -10 14 -10 23 0 13 2 14 9 3 6 -9 9 -5 9 13 0 29 -13 35 -22 10z"/>
<path d="M11316 5145 c-3 -9 3 -19 14 -25 21 -11 25 -4 14 24 -8 20 -20 21
-28 1z"/>
<path d="M10635 5120 c-7 -12 2 -30 16 -30 5 0 9 9 9 20 0 21 -15 27 -25 10z"/>
<path d="M10740 5108 c0 -4 5 -8 10 -8 6 0 10 -7 10 -17 0 -14 -2 -14 -20 2
-17 16 -20 16 -26 2 -3 -9 -2 -22 3 -29 11 -18 11 -57 -1 -55 -18 4 -24 -74
-9 -112 11 -26 17 -31 24 -20 5 8 9 22 9 32 0 9 4 17 8 17 18 0 40 99 32 137
-10 41 -4 56 10 33 6 -9 10 -10 10 -3 0 6 -6 15 -12 19 -18 11 -48 12 -48 2z
m14 -134 c3 -8 2 -12 -4 -9 -6 3 -10 10 -10 16 0 14 7 11 14 -7z"/>
<path d="M4163 5075 c-9 -24 1 -27 15 -5 8 13 8 20 2 20 -6 0 -13 -7 -17 -15z"/>
<path d="M10850 5054 c0 -17 27 -37 34 -25 4 5 1 13 -5 17 -8 4 -7 9 2 15 10
6 7 8 -9 6 -12 0 -22 -6 -22 -13z"/>
<path d="M2098 4893 c7 -3 16 -2 19 1 4 3 -2 6 -13 5 -11 0 -14 -3 -6 -6z"/>
<path d="M10191 4886 c-16 -19 -62 -29 -74 -17 -19 19 -37 12 -37 -14 0 -14
-5 -25 -11 -25 -8 0 -9 -4 0 -13 6 -8 9 -16 6 -18 -2 -3 11 -3 30 -1 27 3 37
10 41 27 3 13 19 29 35 35 16 7 29 19 29 26 0 18 -5 18 -19 0z m-84 -72 c-3
-3 -12 -4 -19 -1 -8 3 -5 6 6 6 11 1 17 -2 13 -5z"/>
<path d="M10321 4834 c0 -11 3 -14 6 -6 3 7 2 16 -1 19 -3 4 -6 -2 -5 -13z"/>
<path d="M10836 4841 c-4 -7 -5 -15 -2 -18 9 -9 19 4 14 18 -4 11 -6 11 -12 0z"/>
<path d="M10040 4790 c0 -5 5 -10 10 -10 6 0 10 5 10 10 0 6 -4 10 -10 10 -5
0 -10 -4 -10 -10z"/>
<path d="M2055 4780 c-3 -5 1 -10 10 -10 9 0 13 5 10 10 -3 6 -8 10 -10 10 -2
0 -7 -4 -10 -10z"/>
<path d="M9986 4771 c-4 -5 -2 -12 3 -15 5 -4 12 -2 15 3 4 5 2 12 -3 15 -5 4
-12 2 -15 -3z"/>
<path d="M10200 4750 c-34 -25 -38 -83 -7 -97 29 -14 67 1 67 25 0 11 7 25 15
32 44 37 -28 76 -75 40z"/>
<path d="M10481 4754 c0 -11 3 -14 6 -6 3 7 2 16 -1 19 -3 4 -6 -2 -5 -13z"/>
<path d="M10615 4759 c-10 -15 3 -25 16 -12 7 7 7 13 1 17 -6 3 -14 1 -17 -5z"/>
<path d="M2118 4740 c-22 -20 -24 -37 -3 -20 13 11 15 7 15 -24 0 -51 27 -49
32 3 4 48 -17 67 -44 41z"/>
<path d="M2041 4745 c-2 -5 -2 -23 -1 -40 0 -16 -6 -47 -15 -67 -9 -23 -11
-38 -5 -38 6 0 9 -10 7 -22 -2 -13 -2 -18 0 -11 2 7 10 10 18 7 7 -3 16 0 21
7 5 9 2 11 -9 6 -15 -6 -27 11 -27 39 0 10 11 7 40 -12 26 -18 37 -31 31 -37
-5 -5 -7 -16 -4 -25 5 -12 1 -14 -19 -9 -24 6 -25 4 -25 -33 0 -22 4 -43 9
-47 6 -3 7 3 3 17 -5 17 -4 21 5 15 9 -6 11 -4 5 6 -5 8 8 -3 28 -23 37 -37
46 -58 26 -58 -6 0 -4 -7 5 -15 20 -20 30 -19 21 3 -5 13 -4 14 6 5 10 -10 9
-16 -1 -28 -12 -14 -15 -14 -31 1 -28 26 -32 12 -5 -19 13 -15 26 -23 30 -19
4 4 6 0 4 -8 -2 -9 18 -26 53 -45 32 -16 58 -33 58 -37 1 -4 4 -15 8 -24 4
-12 8 -13 14 -3 6 10 11 10 23 0 9 -8 16 -20 16 -28 0 -10 6 -13 16 -9 9 4 37
-3 62 -16 32 -15 47 -18 50 -10 2 7 8 12 14 12 7 0 6 -5 -1 -14 -7 -8 -9 -25
-5 -40 5 -21 3 -26 -12 -26 -15 0 -12 -6 14 -26 18 -14 39 -41 47 -60 8 -19
19 -34 25 -34 6 0 3 11 -6 25 -15 22 -15 25 -1 19 9 -3 19 -20 23 -37 8 -39
57 -87 82 -80 21 5 47 -21 37 -37 -4 -6 -13 -9 -21 -6 -13 5 -13 -10 1 -79 6
-25 59 -60 108 -69 22 -4 37 -13 37 -21 0 -8 7 -15 15 -15 8 0 15 8 15 19 0
14 6 17 25 13 30 -5 31 -10 8 -29 -10 -8 -12 -11 -4 -7 8 4 19 1 26 -9 13 -18
65 -34 65 -19 0 5 -9 12 -20 15 -22 6 -28 45 -7 52 6 3 13 17 13 31 2 18 -2
24 -12 20 -7 -3 -18 4 -24 14 -13 24 -55 28 -46 5 3 -8 1 -15 -5 -15 -5 0 -12
14 -15 30 -7 34 -11 36 -34 15 -26 -24 -53 -8 -48 26 3 21 0 29 -10 29 -11 0
-13 10 -10 43 6 51 -9 78 -38 71 -27 -7 -54 23 -29 32 21 8 6 20 -46 34 -23 6
-40 19 -47 36 -7 14 -16 22 -22 19 -5 -3 -12 7 -16 22 -4 15 -11 34 -17 41 -6
8 -6 12 2 12 6 0 11 -4 11 -9 0 -5 15 -8 33 -7 29 1 32 5 32 31 0 26 -4 30
-30 33 -33 4 -57 29 -49 53 2 9 1 24 -2 34 -7 17 -8 17 -15 -2 -6 -15 -14 -19
-38 -15 -17 2 -31 9 -31 14 0 5 -13 7 -29 3 -42 -9 -50 12 -15 40 17 13 25 27
20 32 -5 4 -11 2 -13 -4 -3 -7 -11 -13 -18 -13 -7 0 -16 -6 -19 -12 -3 -7 -4
-5 -3 6 1 13 -8 21 -33 30 -23 7 -36 19 -40 36 -3 14 -13 25 -22 25 -8 0 -23
6 -32 14 -18 15 -22 57 -6 63 15 5 17 60 3 65 -8 3 -13 -4 -13 -16 0 -12 -3
-21 -6 -21 -12 0 -33 34 -34 53 0 9 -4 17 -10 17 -5 0 -7 -7 -3 -16 10 -26
-30 -13 -42 14 -5 12 -15 22 -21 22 -20 0 -42 34 -47 70 -2 19 -5 31 -6 25z
m189 -415 c0 -5 -4 -10 -10 -10 -5 0 -10 5 -10 10 0 6 5 10 10 10 6 0 10 -4
10 -10z m40 -10 c0 -5 -4 -10 -10 -10 -5 0 -10 5 -10 10 0 6 5 10 10 10 6 0
10 -4 10 -10z m55 -30 c3 -5 1 -10 -4 -10 -6 0 -11 5 -11 10 0 6 2 10 4 10 3
0 8 -4 11 -10z m145 -10 c0 -5 -4 -10 -10 -10 -5 0 -10 5 -10 10 0 6 5 10 10
10 6 0 10 -4 10 -10z m2 -62 c-7 -7 -12 -8 -12 -2 0 14 12 26 19 19 2 -3 -1
-11 -7 -17z m88 -28 c0 -5 -4 -10 -10 -10 -5 0 -10 5 -10 10 0 6 5 10 10 10 6
0 10 -4 10 -10z"/>
<path d="M10886 4693 c-3 -8 -6 -16 -6 -17 0 -1 10 -2 22 -3 20 -2 37 11 38
28 0 13 -49 6 -54 -8z"/>
<path d="M10375 4690 c-3 -5 -13 -7 -23 -4 -15 5 -15 4 1 -6 21 -13 14 -30
-14 -30 -21 0 -25 -20 -9 -36 8 -8 6 -15 -4 -23 -13 -11 -20 -8 -40 16 -22 24
-25 25 -26 9 0 -23 67 -89 73 -72 2 6 8 8 12 4 4 -4 3 -14 -4 -22 -9 -10 -8
-15 2 -19 9 -3 13 5 13 32 -1 33 2 36 26 36 38 1 40 6 29 56 -6 28 -7 45 -1
47 6 2 10 8 10 13 0 12 -37 12 -45 -1z"/>
<path d="M2191 4664 c0 -11 3 -14 6 -6 3 7 2 16 -1 19 -3 4 -6 -2 -5 -13z"/>
<path d="M9830 4662 c0 -15 25 -62 33 -62 11 0 9 18 -3 25 -6 4 -7 11 -4 17 4
6 9 5 15 -3 4 -7 11 -10 14 -7 13 13 -7 29 -27 22 -14 -4 -18 -2 -14 5 4 6 2
11 -3 11 -6 0 -11 -4 -11 -8z"/>
<path d="M9977 4654 c-4 -4 -7 -17 -7 -28 1 -19 1 -20 11 -3 11 19 8 43 -4 31z"/>
<path d="M2215 4630 c-3 -5 -1 -10 4 -10 6 0 11 5 11 10 0 6 -2 10 -4 10 -3 0
-8 -4 -11 -10z"/>
<path d="M10180 4616 c0 -9 7 -16 16 -16 17 0 14 22 -4 28 -7 2 -12 -3 -12
-12z"/>
<path d="M9920 4550 c0 -5 4 -10 9 -10 6 0 13 5 16 10 3 6 -1 10 -9 10 -9 0
-16 -4 -16 -10z"/>
<path d="M10306 4513 c-3 -3 -1 -13 4 -23 5 -10 7 -20 4 -22 -2 -3 4 -11 13
-19 17 -13 17 -13 3 5 -14 18 -13 19 18 14 17 -2 32 -1 32 3 0 10 -67 48 -74
42z"/>
<path d="M2396 4496 c4 -12 0 -16 -16 -16 -16 0 -20 -4 -16 -16 3 -9 6 -22 6
-30 0 -10 5 -9 20 6 21 21 26 55 10 65 -6 3 -7 -1 -4 -9z"/>
<path d="M9855 4470 c-3 -5 -1 -10 4 -10 6 0 11 5 11 10 0 6 -2 10 -4 10 -3 0
-8 -4 -11 -10z"/>
<path d="M10365 4439 c-4 -6 -5 -12 -2 -15 2 -3 7 2 10 11 7 17 1 20 -8 4z"/>
<path d="M10136 4432 c-3 -6 -1 -14 5 -17 15 -10 25 3 12 16 -7 7 -13 7 -17 1z"/>
<path d="M2460 4420 c0 -5 5 -10 11 -10 5 0 7 5 4 10 -3 6 -8 10 -11 10 -2 0
-4 -4 -4 -10z"/>
<path d="M10033 4413 c-20 -8 -15 -40 7 -46 27 -7 42 13 26 36 -14 18 -14 18
-33 10z m27 -17 c0 -3 -4 -8 -10 -11 -5 -3 -10 -1 -10 4 0 6 5 11 10 11 6 0
10 -2 10 -4z"/>
<path d="M10660 4381 c0 -6 -13 -18 -29 -27 -17 -10 -28 -21 -25 -26 8 -13 26
-9 18 5 -5 9 -4 9 6 0 11 -10 11 -15 0 -28 -7 -8 -8 -15 -2 -15 5 0 12 6 15
14 3 8 16 16 29 18 27 4 38 38 13 38 -14 0 -15 3 -5 15 10 12 10 15 -4 15 -9
0 -16 -4 -16 -9z"/>
<path d="M6408 4354 c6 -3 9 -10 6 -16 -4 -6 -1 -9 5 -7 19 7 14 24 -6 26 -10
2 -12 0 -5 -3z"/>
<path d="M9806 4331 c-3 -5 1 -14 10 -21 11 -10 18 -10 26 -2 9 9 9 12 -1 12
-7 0 -9 5 -6 10 3 6 -1 10 -9 10 -8 0 -17 -4 -20 -9z"/>
<path d="M10055 4320 c-3 -5 1 -10 10 -10 9 0 13 5 10 10 -3 6 -8 10 -10 10
-2 0 -7 -4 -10 -10z"/>
<path d="M10547 4286 c-4 -10 -1 -13 9 -9 7 3 14 9 14 14 0 14 -17 10 -23 -5z"/>
<path d="M10450 4266 c0 -2 6 -16 14 -30 11 -22 15 -24 20 -11 10 27 7 35 -11
28 -11 -4 -14 -3 -9 5 4 7 2 12 -3 12 -6 0 -11 -2 -11 -4z"/>
<path d="M2290 4186 c0 -14 28 -42 35 -34 2 2 2 14 -2 26 -6 24 -33 31 -33 8z"/>
<path d="M2864 4183 c-7 -2 -10 -13 -7 -23 6 -22 18 -26 28 -10 8 14 -7 38
-21 33z"/>
<path d="M2682 4160 c-18 -4 -34 -9 -35 -11 -10 -14 -27 -62 -27 -74 0 -10 10
-15 28 -15 29 -1 66 -23 55 -33 -9 -9 49 -8 63 1 6 4 14 17 18 28 5 17 2 23
-15 27 -15 4 -19 11 -14 26 5 18 -20 63 -35 60 -3 -1 -20 -5 -38 -9z"/>
<path d="M2897 4124 c3 -8 12 -13 20 -10 8 3 17 6 19 6 3 0 2 5 -1 10 -11 17
-45 12 -38 -6z"/>
<path d="M2422 4008 c2 -6 10 -14 16 -16 7 -2 10 2 6 12 -7 18 -28 22 -22 4z"/>
<path d="M1366 4001 c-4 -5 -2 -12 4 -16 6 -4 8 -11 5 -16 -4 -5 0 -9 8 -9 10
0 13 7 10 20 -6 24 -19 34 -27 21z"/>
<path d="M1320 3905 c0 -8 5 -15 10 -15 6 0 10 7 10 15 0 8 -4 15 -10 15 -5 0
-10 -7 -10 -15z"/>
<path d="M1375 3880 c4 -6 11 -8 16 -5 14 9 11 15 -7 15 -8 0 -12 -5 -9 -10z"/>
<path d="M2785 3870 c3 -5 8 -10 11 -10 2 0 4 5 4 10 0 6 -5 10 -11 10 -5 0
-7 -4 -4 -10z"/>
<path d="M1506 3808 c7 -11 34 -10 34 1 0 6 -9 9 -19 8 -11 0 -17 -5 -15 -9z"/>
<path d="M1510 3763 c0 -4 5 -15 10 -23 8 -13 10 -13 10 2 0 9 -4 20 -10 23
-5 3 -10 3 -10 -2z"/>
<path d="M1400 3740 c0 -5 5 -10 10 -10 6 0 10 5 10 10 0 6 -4 10 -10 10 -5 0
-10 -4 -10 -10z"/>
<path d="M2950 3733 c0 -4 5 -15 10 -23 8 -13 10 -13 10 2 0 9 -4 20 -10 23
-5 3 -10 3 -10 -2z"/>
<path d="M1485 3710 c-4 -7 -16 -10 -26 -7 -11 3 -17 1 -13 -4 7 -12 41 -11
49 2 4 6 5 13 2 15 -3 3 -8 0 -12 -6z"/>
<path d="M1530 3711 c0 -6 4 -13 10 -16 6 -3 7 1 4 9 -7 18 -14 21 -14 7z"/>
<path d="M1496 3671 c-19 -7 -19 -8 2 -13 15 -4 22 -14 22 -32 0 -20 4 -24 18
-19 12 5 10 -3 -11 -30 -31 -40 -17 -52 21 -17 12 11 33 20 47 20 15 0 24 4
20 10 -3 6 -18 10 -32 10 -17 0 -23 4 -20 14 8 21 -44 65 -67 57z"/>
<path d="M10141 3634 c0 -11 3 -14 6 -6 3 7 2 16 -1 19 -3 4 -6 -2 -5 -13z"/>
<path d="M1630 3530 c-8 -5 -11 -12 -7 -16 4 -4 13 -2 19 4 15 15 7 24 -12 12z"/>
<path d="M1360 3477 c0 -18 -36 -38 -57 -30 -10 3 -15 3 -11 -2 4 -4 3 -14 -3
-21 -14 -17 25 -38 57 -30 29 8 57 64 41 84 -12 16 -27 16 -27 -1z"/>
<path d="M1735 3369 c-4 -6 -5 -12 -2 -15 2 -3 7 2 10 11 7 17 1 20 -8 4z"/>
<path d="M1292 3321 c-6 -15 8 -43 24 -48 5 -2 18 3 28 10 15 11 16 17 7 35
-12 23 -50 26 -59 3z"/>
<path d="M2330 3330 c0 -5 4 -10 9 -10 6 0 13 5 16 10 3 6 -1 10 -9 10 -9 0
-16 -4 -16 -10z"/>
<path d="M1715 3320 c4 -6 11 -8 16 -5 14 9 11 15 -7 15 -8 0 -12 -5 -9 -10z"/>
<path d="M1690 3275 c0 -8 5 -15 11 -15 5 0 7 -4 4 -10 -3 -5 -1 -10 5 -10 7
0 9 7 6 16 -3 9 -6 20 -6 25 0 5 -4 9 -10 9 -5 0 -10 -7 -10 -15z"/>
<path d="M2258 3207 c8 -9 11 -21 8 -26 -8 -12 41 -67 51 -58 3 4 1 7 -6 7 -7
0 -10 4 -7 9 4 5 0 12 -6 15 -7 4 -3 4 9 2 19 -3 20 -1 11 14 -6 10 -25 26
-42 36 -27 15 -29 15 -18 1z"/>
<path d="M1700 3189 c0 -5 5 -7 10 -4 6 3 10 8 10 11 0 2 -4 4 -10 4 -5 0 -10
-5 -10 -11z"/>
<path d="M1405 3090 c-8 -26 7 -45 30 -36 21 8 16 50 -7 54 -10 2 -19 -5 -23
-18z"/>
<path d="M2266 3101 c-4 -7 -5 -15 -2 -18 9 -9 19 4 14 18 -4 11 -6 11 -12 0z"/>
<path d="M2377 3043 c-12 -11 -8 -23 8 -23 8 0 15 7 15 15 0 16 -12 20 -23 8z"/>
<path d="M1712 3000 c0 -14 2 -19 5 -12 2 6 2 18 0 25 -3 6 -5 1 -5 -13z"/>
<path d="M1775 2990 c-3 -5 1 -10 10 -10 9 0 13 5 10 10 -3 6 -8 10 -10 10 -2
0 -7 -4 -10 -10z"/>
<path d="M2056 2957 c-10 -21 11 -77 29 -77 7 0 16 -7 19 -16 4 -12 15 -15 36
-12 17 3 30 1 30 -4 0 -5 11 -14 25 -20 18 -8 24 -17 19 -30 -6 -20 6 -24 23
-7 13 13 33 4 33 -17 0 -8 8 -15 18 -15 18 -1 33 -4 42 -8 3 -1 16 -5 30 -7
13 -2 27 -8 30 -13 6 -10 70 -2 70 9 0 6 -56 21 -100 26 -29 3 -49 16 -44 29
3 7 1 16 -5 20 -6 3 -11 15 -11 26 0 14 -7 19 -25 19 -14 0 -25 -5 -25 -10 0
-6 6 -10 13 -8 21 5 18 -16 -4 -24 -11 -5 -19 -3 -19 4 0 6 -8 17 -17 24 -17
13 -17 13 0 14 30 0 18 20 -12 20 -17 0 -33 5 -36 11 -4 6 -19 10 -33 9 -66
-5 -71 -2 -74 38 -3 28 -6 33 -12 19z"/>
<path d="M2210 2955 c-15 -18 -13 -22 15 -27 14 -2 21 3 23 20 4 26 -19 30
-38 7z m30 -15 c0 -5 -2 -10 -4 -10 -3 0 -8 5 -11 10 -3 6 -1 10 4 10 6 0 11
-4 11 -10z"/>
<path d="M3553 2843 c-18 -7 -16 -27 8 -73 26 -49 33 -54 52 -35 26 25 29 18
23 -50 -3 -36 -2 -65 2 -65 5 0 18 -9 29 -19 21 -20 21 -20 39 0 24 27 31 24
39 -17 3 -20 9 -33 12 -30 3 3 14 -5 24 -18 15 -20 24 -23 47 -17 15 4 27 12
27 17 0 5 4 14 8 21 5 8 0 17 -13 25 -14 9 -20 23 -20 47 0 30 -2 32 -12 19
-7 -8 -21 -18 -30 -21 -14 -5 -18 -1 -18 18 0 13 -4 27 -10 30 -5 3 -10 1 -10
-4 0 -24 -18 -9 -24 19 -3 17 -17 41 -30 53 -14 13 -26 36 -28 53 -3 25 0 29
20 26 30 -4 28 14 -3 22 -26 7 -61 -15 -47 -28 7 -8 -17 -26 -35 -26 -19 0
-16 28 4 39 10 5 14 13 10 17 -5 5 -12 2 -16 -5 -6 -9 -11 -10 -15 -2 -8 12
-13 12 -33 4z m152 -172 c0 -23 -19 -23 -33 0 -12 19 -11 20 10 17 13 -2 23
-9 23 -17z m105 -131 c0 -5 -2 -10 -4 -10 -3 0 -8 5 -11 10 -3 6 -1 10 4 10 6
0 11 -4 11 -10z"/>
<path d="M3111 2823 c7 -10 15 -20 16 -22 2 -2 3 3 3 11 0 9 -7 19 -16 22 -15
6 -15 4 -3 -11z"/>
<path d="M7155 2830 c-3 -5 -3 -15 1 -21 6 -11 23 6 24 24 0 10 -18 9 -25 -3z"/>
<path d="M2370 2815 c0 -8 4 -15 10 -15 5 0 7 7 4 15 -4 8 -8 15 -10 15 -2 0
-4 -7 -4 -15z"/>
<path d="M2420 2810 c0 -5 5 -10 11 -10 5 0 7 5 4 10 -3 6 -8 10 -11 10 -2 0
-4 -4 -4 -10z"/>
<path d="M2591 2761 c-12 -22 -5 -31 26 -31 27 0 33 34 7 44 -22 8 -22 8 -33
-13z"/>
<path d="M6580 2717 c0 -15 75 -77 87 -73 8 3 11 2 8 -3 -7 -12 4 -19 43 -26
37 -6 38 -3 16 30 -9 15 -30 27 -50 31 -19 3 -34 12 -34 19 0 7 -10 15 -22 19
-26 6 -48 8 -48 3z"/>
<path d="M6820 2687 c0 -9 10 -22 23 -28 l22 -12 -20 24 c-11 13 -21 26 -22
28 -2 2 -3 -3 -3 -12z"/>
<path d="M6860 2690 c0 -5 5 -10 10 -10 6 0 10 5 10 10 0 6 -4 10 -10 10 -5 0
-10 -4 -10 -10z"/>
<path d="M2300 2646 c0 -8 5 -18 10 -21 6 -3 10 3 10 14 0 12 -4 21 -10 21 -5
0 -10 -6 -10 -14z"/>
<path d="M6870 2631 c0 -5 6 -11 14 -14 8 -3 12 -14 9 -25 -3 -13 5 -27 26
-44 20 -18 28 -32 25 -45 -4 -14 0 -22 13 -25 15 -4 23 4 36 34 20 45 14 62
-34 102 -29 25 -89 36 -89 17z"/>
<path d="M6781 2604 c-1 -15 -56 -53 -83 -58 -13 -2 -29 1 -35 6 -7 6 -14 7
-14 2 -11 -85 -4 -109 37 -124 13 -5 24 -17 24 -25 0 -10 5 -13 12 -9 8 5 9 2
5 -9 -4 -11 -1 -17 8 -17 17 0 21 35 5 45 -5 3 0 15 12 27 l21 21 -38 34 c-21
18 -35 36 -32 39 3 3 20 -9 37 -28 18 -18 37 -33 43 -33 7 -1 11 -6 10 -13 -2
-7 6 -12 17 -12 18 0 24 11 23 46 0 7 8 9 20 6 14 -3 18 -1 15 9 -2 8 -15 15
-27 17 -15 3 -28 17 -41 45 -10 23 -19 37 -19 31z m-108 -71 c2 -5 -2 -19 -9
-32 -13 -25 -13 -25 -12 7 1 30 11 42 21 25z m68 -80 c13 -16 12 -17 -3 -4
-17 13 -22 21 -14 21 2 0 10 -8 17 -17z"/>
<path d="M2075 2560 c-3 -5 -1 -10 4 -10 6 0 11 5 11 10 0 6 -2 10 -4 10 -3 0
-8 -4 -11 -10z"/>
<path d="M10190 2455 c1 -17 29 -49 37 -41 4 3 -3 16 -15 29 -12 12 -22 17
-22 12z"/>
<path d="M1605 2360 c-4 -12 -1 -27 5 -35 14 -17 34 -20 24 -4 -3 6 -1 15 7
19 10 7 10 11 0 24 -18 21 -28 20 -36 -4z"/>
<path d="M3938 2163 c-10 -2 -18 -8 -18 -13 0 -4 -10 -10 -22 -13 -13 -4 -28
-16 -33 -29 -6 -13 -17 -21 -25 -19 -17 4 -51 4 -56 -1 -2 -2 -5 -28 -7 -58
-3 -30 -8 -68 -12 -84 -5 -19 -4 -31 6 -38 11 -8 11 -9 -3 -5 -12 4 -20 -3
-27 -25 -14 -40 -15 -39 12 -34 12 3 26 5 30 5 5 1 6 5 3 10 -8 12 21 34 34
26 6 -4 9 -13 6 -20 -2 -7 3 -21 13 -31 9 -11 18 -23 20 -29 3 -13 44 -6 53 9
4 6 6 17 3 23 -2 7 -1 12 3 12 22 -4 42 2 37 10 -3 6 12 11 32 13 34 3 38 6
35 28 -3 21 -2 22 11 11 13 -10 20 -9 41 4 14 10 23 21 20 26 -3 5 0 9 5 9 6
0 11 5 11 10 0 6 -7 10 -16 10 -12 0 -15 6 -11 22 4 14 0 29 -11 41 -16 18
-16 20 8 39 20 16 21 21 9 29 -11 7 -11 9 4 9 9 0 17 4 17 9 0 4 -18 8 -40 8
-22 0 -40 -4 -40 -8 0 -5 9 -9 21 -9 29 0 19 -24 -12 -28 -13 -2 -34 -8 -47
-14 -16 -9 -25 -9 -33 -1 -8 8 -18 8 -35 1 -30 -14 -41 -4 -20 18 11 10 26 14
43 11 15 -3 32 1 40 8 18 18 16 52 -3 59 -17 6 -19 6 -46 -1z m-128 -173 c-8
-5 -17 -7 -19 -4 -3 3 1 9 9 14 8 5 17 7 19 4 3 -3 -1 -9 -9 -14z m127 -12
c-3 -8 -6 -5 -6 6 -1 11 2 17 5 13 3 -3 4 -12 1 -19z m-107 -8 c0 -5 -2 -10
-4 -10 -3 0 -8 5 -11 10 -3 6 -1 10 4 10 6 0 11 -4 11 -10z m47 -22 c-3 -7 -5
-2 -5 12 0 14 2 19 5 13 2 -7 2 -19 0 -25z m-7 -47 c0 -6 -4 -13 -10 -16 -5
-3 -10 1 -10 9 0 9 5 16 10 16 6 0 10 -4 10 -9z m77 -13 c-3 -8 -6 -5 -6 6 -1
11 2 17 5 13 3 -3 4 -12 1 -19z"/>
<path d="M4136 2091 c-4 -5 -3 -16 0 -25 4 -11 1 -16 -10 -16 -9 0 -16 -4 -16
-9 0 -17 50 -6 56 12 6 19 -21 53 -30 38z"/>
<path d="M4190 2034 c0 -14 3 -14 15 -4 8 7 15 14 15 16 0 2 -7 4 -15 4 -8 0
-15 -7 -15 -16z"/>
<path d="M4150 1993 c0 -9 8 -13 22 -11 30 4 33 23 3 24 -16 1 -25 -3 -25 -13z"/>
<path d="M3937 1622 c-23 -25 -21 -32 8 -30 19 2 25 8 25 25 0 28 -11 29 -33
5z"/>
</g>
</svg>
