<?xml version="1.0" encoding="UTF-8"?>
<svg version="1.1" xmlns="http://www.w3.org/2000/svg" width="512" height="512">
<path d="M0 0 C1.45108658 0.00273422 1.45108658 0.00273422 2.93148804 0.00552368 C17.26440977 0.05095174 31.21023917 0.55983928 45.3125 3.3125 C46.65803955 3.55395752 46.65803955 3.55395752 48.03076172 3.80029297 C107.84088904 14.62287989 165.35495829 48.68064457 202.3125 97.3125 C202.72918945 97.85277832 203.14587891 98.39305664 203.57519531 98.94970703 C211.2584873 108.9447116 218.00092968 119.40459036 224.3125 130.3125 C224.70679199 130.98974121 225.10108398 131.66698242 225.50732422 132.36474609 C238.68961173 155.2833756 247.29510918 180.85822563 252.625 206.6875 C252.77243652 207.39817627 252.91987305 208.10885254 253.07177734 208.84106445 C256.05713787 224.48358366 256.6873098 240.11919606 256.625 256 C256.62226578 257.45108658 256.62226578 257.45108658 256.61947632 258.93148804 C256.57404826 273.26440977 256.06516072 287.21023917 253.3125 301.3125 C253.15152832 302.20952637 252.99055664 303.10655273 252.82470703 304.03076172 C242.00212011 363.84088904 207.94435543 421.35495829 159.3125 458.3125 C158.77222168 458.72918945 158.23194336 459.14587891 157.67529297 459.57519531 C147.6802884 467.2584873 137.22040964 474.00092968 126.3125 480.3125 C125.63525879 480.70679199 124.95801758 481.10108398 124.26025391 481.50732422 C101.3416244 494.68961173 75.76677437 503.29510918 49.9375 508.625 C49.22682373 508.77243652 48.51614746 508.91987305 47.78393555 509.07177734 C32.14141634 512.05713787 16.50580394 512.6873098 0.625 512.625 C-0.34239105 512.62317719 -1.3097821 512.62135437 -2.30648804 512.61947632 C-16.63940977 512.57404826 -30.58523917 512.06516072 -44.6875 509.3125 C-45.58452637 509.15152832 -46.48155273 508.99055664 -47.40576172 508.82470703 C-107.21588904 498.00212011 -164.72995829 463.94435543 -201.6875 415.3125 C-202.10418945 414.77222168 -202.52087891 414.23194336 -202.95019531 413.67529297 C-210.6334873 403.6802884 -217.37592968 393.22040964 -223.6875 382.3125 C-224.08179199 381.63525879 -224.47608398 380.95801758 -224.88232422 380.26025391 C-238.06461173 357.3416244 -246.67010918 331.76677437 -252 305.9375 C-252.14743652 305.22682373 -252.29487305 304.51614746 -252.44677734 303.78393555 C-255.43213787 288.14141634 -256.0623098 272.50580394 -256 256.625 C-255.99817719 255.65760895 -255.99635437 254.6902179 -255.99447632 253.69351196 C-255.94904826 239.36059023 -255.44016072 225.41476083 -252.6875 211.3125 C-252.44604248 209.96696045 -252.44604248 209.96696045 -252.19970703 208.59423828 C-241.37712011 148.78411096 -207.31935543 91.27004171 -158.6875 54.3125 C-158.14722168 53.89581055 -157.60694336 53.47912109 -157.05029297 53.04980469 C-147.0552884 45.3665127 -136.59540964 38.62407032 -125.6875 32.3125 C-125.01025879 31.91820801 -124.33301758 31.52391602 -123.63525391 31.11767578 C-100.7166244 17.93538827 -75.14177437 9.32989082 -49.3125 4 C-48.60182373 3.85256348 -47.89114746 3.70512695 -47.15893555 3.55322266 C-31.51641634 0.56786213 -15.88080394 -0.0623098 0 0 Z " fill="#4ABB95" transform="translate(255.6875,-0.3125)"/>
<path d="M0 0 C13.72069418 13.17074788 21.59118344 31.62431645 28.30499268 49.05757141 C30.84149992 55.64059359 33.4779259 62.18183704 36.12109375 68.72265625 C43.4819406 86.96975159 43.4819406 86.96975159 46.8515625 95.3984375 C47.24061264 96.36399063 47.62966278 97.32954376 48.03050232 98.32435608 C49.96276445 103.17082934 51.68178597 107.95046688 53 113 C53.66 113 54.32 113 55 113 C55.16435547 112.40791748 55.32871094 111.81583496 55.49804688 111.20581055 C57.41405065 104.54198576 59.83281405 98.20779342 62.5 91.8125 C63.4795326 89.44858869 64.45775915 87.08418612 65.43359375 84.71875 C65.70340561 84.06558304 65.97321747 83.41241608 66.25120544 82.73945618 C68.34408126 77.6506897 70.37438283 72.53878299 72.38796997 67.41816711 C74.02562075 63.25607843 75.67552601 59.09888517 77.32568359 54.94174194 C78.13989093 52.88173389 78.94879346 50.81961995 79.75195312 48.75527954 C84.46784733 36.64607466 89.52034952 25.45340621 96.85067749 14.69355774 C98.781926 11.84781093 100.63331001 8.95089705 102.5 6.0625 C105.73947896 1.13026052 105.73947896 1.13026052 108 0 C109.5778125 0.8971875 109.5778125 0.8971875 111.1875 1.8125 C116.11242802 4.37974971 120.87347555 4.76058833 126.33984375 5.37890625 C141.33977826 7.22100347 156.54687969 10.59457456 171 15 C171.87446777 15.26119629 172.74893555 15.52239258 173.64990234 15.79150391 C218.64175338 29.39648675 218.64175338 29.39648675 229.05981445 48.70385742 C231.30126112 54.17796958 232.36103607 60.05141938 233.625 65.8125 C233.92606636 67.14150683 234.22814298 68.47028522 234.53125 69.79882812 C235.11561233 72.3639022 235.67270583 74.93025927 236.21704102 77.50463867 C236.93631627 80.92424913 236.93631627 80.92424913 237.89038086 83.91137695 C239.6039781 89.86336578 239.6039781 89.86336578 237.92285156 93.02709961 C236.18321681 95.08015139 234.34745348 96.80236033 232.3125 98.5625 C231.61640625 99.20670898 230.9203125 99.85091797 230.203125 100.51464844 C228.16540472 102.38068234 226.09276673 104.19614251 224 106 C223.03449219 106.84949219 222.06898438 107.69898438 221.07421875 108.57421875 C218.43926324 110.80133593 215.74682447 112.91256412 213 115 C212.45972168 115.41668945 211.91944336 115.83337891 211.36279297 116.26269531 C201.3677884 123.9459873 190.90790964 130.68842968 180 137 C179.32275879 137.39429199 178.64551758 137.78858398 177.94775391 138.19482422 C155.0291244 151.37711173 129.45427437 159.98260918 103.625 165.3125 C102.5589856 165.53365479 102.5589856 165.53365479 101.47143555 165.75927734 C85.82891634 168.74463787 70.19330394 169.3748098 54.3125 169.3125 C53.34510895 169.31067719 52.3777179 169.30885437 51.38101196 169.30697632 C37.04809023 169.26154826 23.10226083 168.75266072 9 166 C8.10297363 165.83902832 7.20594727 165.67805664 6.28173828 165.51220703 C-41.78797757 156.81403665 -87.55225376 133.69757746 -122.46557617 99.41088867 C-124.01706445 97.92475613 -124.01706445 97.92475613 -125.99731445 96.58325195 C-128.23252207 94.8326702 -129.62732434 93.49647471 -131 91 C-131.09141552 86.26983291 -129.91299784 81.98257938 -128.6875 77.4375 C-128.38150879 76.18565918 -128.07551758 74.93381836 -127.76025391 73.64404297 C-126.87908822 70.08461566 -125.9458108 66.54269321 -125 63 C-124.60538546 61.42124222 -124.21294858 59.84193578 -123.82421875 58.26171875 C-120.26497324 44.62526783 -112.2870918 36.43443212 -100.33032227 29.36499023 C-86.85870858 21.7873098 -71.92785766 16.82189127 -57 13 C-56.19433594 12.7927832 -55.38867188 12.58556641 -54.55859375 12.37207031 C-42.20215139 9.25466253 -29.83882769 7.05799459 -17.18603516 5.51928711 C-10.63772036 4.6598269 -5.7154835 3.34446175 0 0 Z " fill="#1D1D1E" transform="translate(202,343)"/>
<path d="M0 0 C0.598125 0.268125 1.19625 0.53625 1.8125 0.8125 C4.73124779 1.68165728 7.31920575 1.93069793 10.359375 1.91015625 C11.20371094 1.90693359 12.04804688 1.90371094 12.91796875 1.90039062 C13.79066406 1.89201172 14.66335938 1.88363281 15.5625 1.875 C16.45066406 1.87048828 17.33882812 1.86597656 18.25390625 1.86132812 C20.44017329 1.849574 22.62630179 1.83314249 24.8125 1.8125 C26.89614993 8.61014551 28.83177223 15.43268346 30.625 22.3125 C30.87999268 23.28719238 31.13498535 24.26188477 31.39770508 25.26611328 C33.68584215 34.11749874 35.74607092 43.01696822 37.7199707 51.94335938 C38.74507513 56.51276506 39.79905129 60.93101179 41.4296875 65.32421875 C43.63708068 71.63757722 43.58846923 78.27601153 43.89648438 84.90039062 C43.99219727 86.38635742 43.99219727 86.38635742 44.08984375 87.90234375 C44.13359131 88.79816162 44.17733887 89.69397949 44.22241211 90.61694336 C44.59820246 92.99911803 44.59820246 92.99911803 46.85766602 94.11938477 C47.50276123 94.34811279 48.14785645 94.57684082 48.8125 94.8125 C48.80162354 94.2131665 48.79074707 93.61383301 48.77954102 92.99633789 C48.71545701 86.68742033 49.09153131 80.52179753 49.75 74.25 C49.88051758 72.89938477 49.88051758 72.89938477 50.01367188 71.52148438 C50.68415179 64.94084821 50.68415179 64.94084821 51.8125 63.8125 C56.83432309 63.23560507 60.75167616 63.28208808 65.3125 65.5625 C68.18108447 68.14422602 69.58588999 70.06991935 70.0871582 73.92456055 C70.11616801 76.45058242 70.14057595 78.97376164 70.125 81.5 C70.11762817 82.89980103 70.11762817 82.89980103 70.11010742 84.32788086 C69.89102511 97.52337686 68.61488884 113.49846919 59.94921875 124.08984375 C57.49616507 126.0675342 56.17078777 126.37965954 53.0625 126.5625 C52.26328125 126.61921875 51.4640625 126.6759375 50.640625 126.734375 C50.03734375 126.76015625 49.4340625 126.7859375 48.8125 126.8125 C48.38839844 127.83988281 47.96429688 128.86726562 47.52734375 129.92578125 C43.96229277 138.41023292 40.15899308 146.27164128 34.8125 153.8125 C34.31621094 154.53179687 33.81992187 155.25109375 33.30859375 155.9921875 C26.43914729 165.39248265 17.31639975 175.44457498 7.16796875 181.30859375 C3.20372475 185.70696246 4.47215972 195.65230336 4.25 201.25 C4.18522461 202.77657227 4.18522461 202.77657227 4.11914062 204.33398438 C4.01381418 206.82671028 3.91168328 209.31952338 3.8125 211.8125 C6.1225 211.8125 8.4325 211.8125 10.8125 211.8125 C10.8125 212.4725 10.8125 213.1325 10.8125 213.8125 C11.39515625 214.07804688 11.9778125 214.34359375 12.578125 214.6171875 C14.87424228 215.84552996 16.61606018 217.21564939 18.5625 218.9375 C19.17609375 219.47632813 19.7896875 220.01515625 20.421875 220.5703125 C21.11023438 221.18519531 21.11023438 221.18519531 21.8125 221.8125 C20.51416021 225.37294418 18.96780356 228.24047434 16.7578125 231.3125 C7.27655642 244.87671385 0.60964104 258.61379083 -5.31738281 273.99951172 C-7.58481707 279.8651702 -9.93124699 285.69903877 -12.2734375 291.53515625 C-12.72260025 292.65447037 -13.171763 293.77378448 -13.63453674 294.92701721 C-14.55007893 297.2085492 -15.46565217 299.49006872 -16.3812561 301.77157593 C-17.73211597 305.14286748 -19.07833198 308.51597064 -20.42260742 311.88989258 C-21.05877487 313.48606667 -21.05877487 313.48606667 -21.70779419 315.11448669 C-22.50744749 317.12167128 -23.30645813 319.12911207 -24.10470581 321.13685608 C-26.0668295 326.05925478 -28.07320752 330.95343193 -30.1875 335.8125 C-30.8475 335.8125 -31.5075 335.8125 -32.1875 335.8125 C-34.58120289 329.9127424 -34.58120289 329.9127424 -35.6529541 327.26898193 C-37.26875659 323.28343044 -38.88682176 319.29882017 -40.50854492 315.31567383 C-43.98977317 306.75629984 -47.44426891 298.18801026 -50.82746887 289.58934021 C-52.47206117 285.41309293 -54.12854725 281.24160517 -55.78573608 277.07034302 C-56.58519223 275.04886766 -57.37914551 273.02520594 -58.16714478 270.99923706 C-63.06993403 258.402466 -68.50267555 246.95149613 -76.1875 235.8125 C-76.60518143 235.20209366 -77.02286285 234.59168732 -77.45320129 233.96278381 C-79.24437692 231.3498136 -81.05211224 228.75066724 -82.88671875 226.16796875 C-83.31597656 225.39066406 -83.74523437 224.61335937 -84.1875 223.8125 C-83.05099426 220.40298278 -81.92936875 219.43613724 -79.25 217.125 C-78.18458984 216.19107422 -78.18458984 216.19107422 -77.09765625 215.23828125 C-75.1875 213.8125 -75.1875 213.8125 -73.1875 213.8125 C-73.1875 213.1525 -73.1875 212.4925 -73.1875 211.8125 C-70.8775 211.8125 -68.5675 211.8125 -66.1875 211.8125 C-66.32758671 208.2914137 -66.47560982 204.77070288 -66.625 201.25 C-66.66431641 200.25935547 -66.70363281 199.26871094 -66.74414062 198.24804688 C-66.5064218 188.75893001 -66.5064218 188.75893001 -70.19921875 180.65234375 C-71.52373047 179.71068359 -71.52373047 179.71068359 -72.875 178.75 C-90.52454464 165.20340145 -104.09289737 148.0963079 -111.1875 126.8125 C-111.77917969 126.80992187 -112.37085938 126.80734375 -112.98046875 126.8046875 C-113.77066406 126.76601562 -114.56085938 126.72734375 -115.375 126.6875 C-116.15230469 126.66429687 -116.92960938 126.64109375 -117.73046875 126.6171875 C-121.37300294 125.42424308 -123.19176542 122.93671507 -125.1875 119.8125 C-130.63796375 107.51726782 -132.31481816 94.71719763 -132.5625 81.375 C-132.58868408 80.52204346 -132.61486816 79.66908691 -132.6418457 78.7902832 C-132.6564072 73.3254065 -131.94072132 70.07273542 -128.1875 65.8125 C-125.16942355 63.67597124 -122.64666302 63.56574846 -119 63.625 C-118.11957031 63.63144531 -117.23914063 63.63789063 -116.33203125 63.64453125 C-114.1875 63.8125 -114.1875 63.8125 -113.1875 64.8125 C-112.90087281 66.61423704 -112.67219157 68.42526634 -112.46875 70.23828125 C-112.34113281 71.34494141 -112.21351563 72.45160156 -112.08203125 73.59179688 C-111.88673828 75.34073242 -111.88673828 75.34073242 -111.6875 77.125 C-111.42944216 79.41302769 -111.16911771 81.70080117 -110.90625 83.98828125 C-110.73512695 85.51835815 -110.73512695 85.51835815 -110.56054688 87.0793457 C-110.24458739 89.39424523 -109.81268753 91.56497766 -109.1875 93.8125 C-108.1975 93.3175 -108.1975 93.3175 -107.1875 92.8125 C-107.16171875 91.75933594 -107.1359375 90.70617187 -107.109375 89.62109375 C-106.25423255 64.86240869 -106.25423255 64.86240869 -100.47607422 59.1081543 C-94.21110651 54.04600893 -87.21437353 49.9957481 -80.3125 45.875 C-79.07390341 45.1299461 -77.83554558 44.38449515 -76.59741211 43.63867188 C-72.79952731 41.35417066 -68.99426192 39.08216884 -65.1875 36.8125 C-64.60667664 36.46580261 -64.02585327 36.11910522 -63.4274292 35.76190186 C-49.80303633 27.62949723 -36.12416426 19.58949728 -22.4375 11.5625 C-21.81908234 11.19979004 -21.20066467 10.83708008 -20.56350708 10.46337891 C-17.72430633 8.79874615 -14.88367237 7.13672591 -12.0402832 5.47924805 C-10.3180196 4.47300983 -8.59927559 3.46066426 -6.88745117 2.43676758 C-2.42314977 -0.20769855 -2.42314977 -0.20769855 0 0 Z " fill="#F3B281" transform="translate(287.1875,120.1875)"/>
<path d="M0 0 C1.32837891 0.69416016 1.32837891 0.69416016 2.68359375 1.40234375 C10.69673555 5.89113195 15.87648273 10.75545468 20.3125 18.8125 C22.75479672 23.22615731 25.26155375 26.48638227 28.9375 29.9375 C40.18697938 40.67486348 48.76162612 57.82095768 49.16796875 73.58203125 C49.179865 75.3254924 49.18621707 77.06899873 49.1875 78.8125 C49.19974609 79.67681641 49.21199219 80.54113281 49.22460938 81.43164062 C49.24332907 89.69950688 47.22764829 96.70004401 44.4375 104.4375 C43.78587891 106.26087891 43.78587891 106.26087891 43.12109375 108.12109375 C42 111 42 111 41 112 C38.36 112.33 35.72 112.66 33 113 C32.01 122.9 31.02 132.8 30 143 C28.35 142.34 26.7 141.68 25 141 C24.94054199 140.04915527 24.94054199 140.04915527 24.87988281 139.07910156 C24.68630117 136.13473549 24.46824255 133.19263707 24.25 130.25 C24.188125 129.25355469 24.12625 128.25710937 24.0625 127.23046875 C23.56234932 120.77018908 22.24150569 115.24930546 20.05664062 109.16162109 C18.09532628 103.29308579 16.92393131 97.23038728 15.625 91.1875 C15.0275705 88.45711746 14.42362002 85.72822231 13.81640625 83 C13.66616501 82.32458664 13.51592377 81.64917328 13.36112976 80.95329285 C11.69036115 73.51262451 9.76468259 66.14200916 7.77783203 58.7800293 C7.54306152 57.90773682 7.30829102 57.03544434 7.06640625 56.13671875 C6.7561853 55.00302856 6.7561853 55.00302856 6.43969727 53.84643555 C6 52 6 52 6 50 C5.49339844 50.16113281 4.98679687 50.32226562 4.46484375 50.48828125 C1.13969472 51.17860538 -2.04316 51.17067968 -5.4375 51.1875 C-6.73558594 51.20167969 -8.03367187 51.21585938 -9.37109375 51.23046875 C-13 51 -13 51 -15.66015625 49.92578125 C-18.63583426 48.74842618 -19.93192157 49.15883819 -23 50 C-25.62249238 51.24564341 -25.62249238 51.24564341 -28.296875 52.8515625 C-29.83819092 53.74536621 -29.83819092 53.74536621 -31.41064453 54.65722656 C-33.06362549 55.63127441 -33.06362549 55.63127441 -34.75 56.625 C-35.91885343 57.3074025 -37.08796614 57.98936107 -38.25732422 58.67089844 C-46.93088495 63.73753965 -55.55568482 68.88704742 -64.15454102 74.0793457 C-70.14527809 77.69645636 -76.15550283 81.27533018 -82.19140625 84.81640625 C-84.32557847 86.07171013 -86.45952004 87.32740545 -88.59344482 88.58312988 C-89.96045015 89.38566628 -91.32876277 90.18598122 -92.69854736 90.98376465 C-99.86266501 95.15724889 -106.93036601 99.45917279 -113.78125 104.1328125 C-114.36641891 104.51504471 -114.95158783 104.89727692 -115.55448914 105.29109192 C-120.97600599 109.09284038 -122.34369875 113.58418855 -123.53515625 119.8828125 C-124.41352591 126.89949646 -124.82702404 133.93393205 -125 141 C-126.98 141.99 -126.98 141.99 -129 143 C-130.32 133.1 -131.64 123.2 -133 113 C-136.96 112.505 -136.96 112.505 -141 112 C-144.85065787 81.19473707 -141.06506299 46.67639093 -122.4140625 21.0390625 C-115.70079409 12.58773108 -108.40129565 6.28314885 -99 1 C-97.78183594 0.30777344 -97.78183594 0.30777344 -96.5390625 -0.3984375 C-68.91790833 -15.1475975 -27.68503106 -14.69807513 0 0 Z " fill="#51250D" transform="translate(306,72)"/>
<path d="M0 0 C13.55471523 13.55471523 21.51280531 31.42079772 28.30499268 49.05757141 C30.84149992 55.64059359 33.4779259 62.18183704 36.12109375 68.72265625 C43.4819406 86.96975159 43.4819406 86.96975159 46.8515625 95.3984375 C47.43513771 96.8467672 47.43513771 96.8467672 48.03050232 98.32435608 C49.96276445 103.17082934 51.68178597 107.95046688 53 113 C53.66 113 54.32 113 55 113 C55.16435547 112.40791748 55.32871094 111.81583496 55.49804688 111.20581055 C57.41405065 104.54198576 59.83281405 98.20779342 62.5 91.8125 C63.4795326 89.44858869 64.45775915 87.08418612 65.43359375 84.71875 C65.70340561 84.06558304 65.97321747 83.41241608 66.25120544 82.73945618 C68.34408126 77.6506897 70.37438283 72.53878299 72.38796997 67.41816711 C74.02562075 63.25607843 75.67552601 59.09888517 77.32568359 54.94174194 C78.13989093 52.88173389 78.94879346 50.81961995 79.75195312 48.75527954 C84.46784733 36.64607466 89.52034952 25.45340621 96.85067749 14.69355774 C98.781926 11.84781093 100.63331001 8.95089705 102.5 6.0625 C105.73947896 1.13026052 105.73947896 1.13026052 108 0 C109.6640625 0.7421875 109.6640625 0.7421875 111.625 1.875 C115.81594787 4.10096132 119.28939462 4.66352819 124 5 C122.68 5.33 121.36 5.66 120 6 C119.97421875 6.66 119.9484375 7.32 119.921875 8 C119.36465396 17.72604003 117.70496428 27.19554793 116.0546875 36.78515625 C115.04238698 42.67917924 114.12588047 48.58431406 113.25 54.5 C113.12254395 55.36052979 112.99508789 56.22105957 112.86376953 57.10766602 C112.57419487 59.07153454 112.28681861 61.03572707 112 63 C110.58455844 62.8457568 109.16921253 62.69063578 107.75390625 62.53515625 C106.9657251 62.44886963 106.17754395 62.36258301 105.36547852 62.27368164 C102.23306907 61.91126746 99.11878527 61.46449993 96 61 C96.54269531 61.60328125 97.08539063 62.2065625 97.64453125 62.828125 C98.35996094 63.62734375 99.07539063 64.4265625 99.8125 65.25 C100.52019531 66.03890625 101.22789062 66.8278125 101.95703125 67.640625 C103.74168935 69.7016833 105.39759062 71.79605523 107 74 C105.57925676 77.245613 103.86237319 79.3626159 101.33203125 81.828125 C100.23858398 82.90513672 100.23858398 82.90513672 99.12304688 84.00390625 C98.36056641 84.74511719 97.59808594 85.48632812 96.8125 86.25 C90.53913347 92.36734881 90.53913347 92.36734881 84.6484375 98.84765625 C80.00600978 104.25259222 74.88177271 109.18848284 69.8125 114.1875 C67.857695 116.115505 65.90638463 118.04695367 63.95703125 119.98046875 C63.10085205 120.82504639 62.24467285 121.66962402 61.36254883 122.53979492 C59.07530441 124.92158287 57.01864247 127.38885695 55 130 C51.3918617 128.50847459 49.43767172 126.4851313 46.9140625 123.5390625 C41.96646046 117.90288712 36.71458937 112.63765004 31.375 107.375 C25.93658918 102.01428076 20.60003073 96.65869903 15.63085938 90.85791016 C12.91570362 87.7647462 9.99336527 84.88712101 7.0625 82 C6.47404297 81.41605469 5.88558594 80.83210938 5.27929688 80.23046875 C3.85520207 78.81795195 2.4279475 77.4086219 1 76 C2.55523367 72.50683117 4.65436761 69.77131239 7.0625 66.8125 C8.13177734 65.49185547 8.13177734 65.49185547 9.22265625 64.14453125 C10.11504433 63.06778168 11.01112536 61.98887464 12 61 C11.34773438 61.144375 10.69546875 61.28875 10.0234375 61.4375 C9.14945313 61.623125 8.27546875 61.80875 7.375 62 C6.51648438 62.185625 5.65796875 62.37125 4.7734375 62.5625 C1.80645501 63.03053104 -1.00096782 63.02901119 -4 63 C-4.13575439 62.05906494 -4.27150879 61.11812988 -4.41137695 60.14868164 C-5.0417964 55.78614118 -5.67644816 51.42422252 -6.3125 47.0625 C-6.42604828 46.28289917 -6.53959656 45.50329834 -6.65658569 44.70007324 C-8.10185252 34.80043765 -9.61182945 24.93245833 -11.51953125 15.109375 C-12 12 -12 12 -12 6 C-8.04 4.02 -4.08 2.04 0 0 Z " fill="#4A4A54" transform="translate(202,343)"/>
<path d="M0 0 C2.31 0 4.62 0 7 0 C7 1.32 7 2.64 7 4 C7.86044922 4.26659424 8.72089844 4.53318848 9.60742188 4.80786133 C13.00383451 6.00134743 16.07485421 7.44157536 19.28125 9.07421875 C20.45300781 9.65880859 21.62476563 10.24339844 22.83203125 10.84570312 C24.67236295 11.76685285 26.50979915 12.6925217 28.34130859 13.63110352 C30.12648113 14.54325463 31.9225327 15.43401425 33.71875 16.32421875 C34.78029297 16.86135498 35.84183594 17.39849121 36.93554688 17.9519043 C41.74275025 19.59605058 44.72770719 18.53737581 49.31152344 16.60131836 C51.06770996 15.72938843 51.06770996 15.72938843 52.859375 14.83984375 C53.48982727 14.53051407 54.12027954 14.22118439 54.76983643 13.90248108 C56.7669346 12.92147185 58.75871556 11.93025002 60.75 10.9375 C62.75619873 9.94256959 64.76345037 8.94993192 66.77301025 7.96180725 C68.58651834 7.06934921 70.39638243 6.1694978 72.20605469 5.26928711 C75 4 75 4 77 4 C77 2.68 77 1.36 77 0 C79.31 0 81.62 0 84 0 C84 0.66 84 1.32 84 2 C84.87398437 2.39832031 84.87398437 2.39832031 85.765625 2.8046875 C88.06174228 4.03302996 89.80356018 5.40314939 91.75 7.125 C92.36359375 7.66382813 92.9771875 8.20265625 93.609375 8.7578125 C94.29773438 9.37269531 94.29773438 9.37269531 95 10 C93.70166021 13.56044418 92.15530356 16.42797434 89.9453125 19.5 C80.46405642 33.06421385 73.79714104 46.80129083 67.87011719 62.18701172 C65.60268293 68.0526702 63.25625301 73.88653877 60.9140625 79.72265625 C60.24031837 81.40162743 60.24031837 81.40162743 59.55296326 83.11451721 C58.63742107 85.3960492 57.72184783 87.67756872 56.8062439 89.95907593 C55.45538403 93.33036748 54.10916802 96.70347064 52.76489258 100.07739258 C52.12872513 101.67356667 52.12872513 101.67356667 51.47970581 103.30198669 C50.68005251 105.30917128 49.88104187 107.31661207 49.08279419 109.32435608 C47.1206705 114.24675478 45.11429248 119.14093193 43 124 C42.34 124 41.68 124 41 124 C38.60629711 118.1002424 38.60629711 118.1002424 37.5345459 115.45648193 C35.91874341 111.47093044 34.30067824 107.48632017 32.67895508 103.50317383 C29.19772683 94.94379984 25.74323109 86.37551026 22.36003113 77.77684021 C20.71543883 73.60059293 19.05895275 69.42910517 17.40176392 65.25784302 C16.60230777 63.23636766 15.80835449 61.21270594 15.02035522 59.18673706 C10.11756597 46.589966 4.68482445 35.13899613 -3 24 C-3.41768143 23.38959366 -3.83536285 22.77918732 -4.26570129 22.15028381 C-6.05687692 19.5373136 -7.86461224 16.93816724 -9.69921875 14.35546875 C-10.12847656 13.57816406 -10.55773437 12.80085938 -11 12 C-9.86349426 8.59048278 -8.74186875 7.62363724 -6.0625 5.3125 C-5.35222656 4.68988281 -4.64195312 4.06726563 -3.91015625 3.42578125 C-2 2 -2 2 0 2 C0 1.34 0 0.68 0 0 Z " fill="#86B4D0" transform="translate(214,332)"/>
<path d="M0 0 C26.07 0 52.14 0 79 0 C79 7.26 79 14.52 79 22 C72.23228656 25.38385672 66.1526913 27.76335508 59 29.9375 C57.86151611 30.28377441 56.72303223 30.63004883 55.55004883 30.98681641 C37.18572821 36.43985511 19.08196727 39.54234972 0 41 C0 27.47 0 13.94 0 0 Z " fill="#D2E3EE" transform="translate(275,471)"/>
<path d="M0 0 C2.8875 1.423125 5.775 2.84625 8.75 4.3125 C24.02104322 11.63385882 36.62542377 14.44071963 52.98193359 8.77148438 C59.50874166 6.27635814 65.73732888 3.08000219 72 0 C71.67 10.89 71.34 21.78 71 33 C66.41671458 35.31208099 61.83067972 37.6133987 57.23046875 39.89086914 C55.66804343 40.66803323 54.10842297 41.45086358 52.55175781 42.23950195 C50.30992589 43.37401779 48.05870131 44.48758055 45.8046875 45.59765625 C45.1138205 45.952798 44.42295349 46.30793976 43.71115112 46.67384338 C39.32869393 48.80063096 36.66775878 49.45062411 32 48 C29.48284157 46.93622787 27.07171191 45.83822818 24.6328125 44.62109375 C23.61343094 44.12380516 23.61343094 44.12380516 22.57345581 43.61647034 C20.42033346 42.56405001 18.2726754 41.50098456 16.125 40.4375 C14.65920292 39.71868943 13.19306033 39.00058297 11.7265625 38.28320312 C8.1462772 36.53153639 4.57359186 34.76554984 1 33 C0.67 22.11 0.34 11.22 0 0 Z " fill="#E1A379" transform="translate(220,303)"/>
<path d="M0 0 C2.31 0 4.62 0 7 0 C7 0.66 7 1.32 7 2 C7.87398438 2.39832031 7.87398438 2.39832031 8.765625 2.8046875 C11.06174228 4.03302996 12.80356018 5.40314939 14.75 7.125 C15.67039062 7.93324219 15.67039062 7.93324219 16.609375 8.7578125 C17.29773438 9.37269531 17.29773438 9.37269531 18 10 C16.70166021 13.56044418 15.15530356 16.42797434 12.9453125 19.5 C3.19812721 33.46047641 -3.54282351 47.61763879 -9.63769531 63.48242188 C-11.75903574 68.95989012 -14.00840564 74.38342844 -16.25 79.8125 C-16.98531347 81.61029353 -17.71979412 83.4084281 -18.453125 85.20703125 C-18.75379883 85.9441333 -19.05447266 86.68123535 -19.36425781 87.44067383 C-19.57405273 87.95525146 -19.78384766 88.4698291 -20 89 C-22.22312475 85.66531288 -22.91697254 82.64936906 -23.7265625 78.8046875 C-23.87910492 78.09780792 -24.03164734 77.39092834 -24.18881226 76.66262817 C-24.50971369 75.16543845 -24.82722886 73.6675195 -25.14160156 72.16894531 C-25.61938161 69.9016618 -26.11363573 67.63841518 -26.609375 65.375 C-30.49065797 47.32437148 -30.49065797 47.32437148 -27.57421875 40.8203125 C-26.95160156 39.93085938 -26.32898438 39.04140625 -25.6875 38.125 C-25.07261719 37.22007812 -24.45773437 36.31515625 -23.82421875 35.3828125 C-22 33 -22 33 -20.26953125 31.3046875 C-18.76753842 30.0645039 -18.76753842 30.0645039 -19 28 C-19.804375 27.773125 -20.60875 27.54625 -21.4375 27.3125 C-25.91285739 25.66368412 -29.88721318 23.39455588 -34 21 C-31.33129321 17.83976801 -28.12377802 16.41983888 -24.43359375 14.64453125 C-23.79889664 14.33803146 -23.16419952 14.03153168 -22.51026917 13.71574402 C-21.17276327 13.07156015 -19.8337725 12.43045136 -18.4934082 11.79223633 C-16.43774132 10.812615 -14.38757501 9.82214599 -12.33789062 8.83007812 C-2.28260733 4 -2.28260733 4 0 4 C0 2.68 0 1.36 0 0 Z " fill="#F0F7FC" transform="translate(291,332)"/>
<path d="M0 0 C2.31 0 4.62 0 7 0 C7 1.32 7 2.64 7 4 C7.85682373 4.26876953 8.71364746 4.53753906 9.59643555 4.81445312 C14.8972658 6.66086527 19.88471152 9.1594975 24.93334961 11.59521484 C26.82135522 12.50426367 28.71416651 13.40272681 30.60742188 14.30078125 C31.79529297 14.87183594 32.98316406 15.44289063 34.20703125 16.03125 C35.2947583 16.55267578 36.38248535 17.07410156 37.50317383 17.61132812 C40 19 40 19 41 21 C40.08476562 21.47050781 39.16953125 21.94101562 38.2265625 22.42578125 C37.02583262 23.05428829 35.8253232 23.68321663 34.625 24.3125 C34.02171875 24.62123047 33.4184375 24.92996094 32.796875 25.24804688 C29.61741675 26.92609428 28.03462448 27.94806328 26 31 C26.721875 31.66 27.44375 32.32 28.1875 33 C30.27246909 35.12071142 32.10630267 37.31257524 33.8125 39.75 C34.23144531 40.34296875 34.65039062 40.9359375 35.08203125 41.546875 C38.11593499 49.65449862 34.95267151 58.99099256 33.125 67.0625 C32.85558594 68.29033203 32.58617187 69.51816406 32.30859375 70.78320312 C30.96257208 76.87969638 29.55504253 82.95345115 28 89 C25.86899446 86.86899446 25.26297641 85.4895842 24.1875 82.71240234 C23.83953369 81.82322113 23.49156738 80.93403992 23.13305664 80.01791382 C22.5721936 78.56658554 22.5721936 78.56658554 22 77.0859375 C21.18682867 75.02318874 20.37300391 72.96069747 19.55859375 70.8984375 C18.28603629 67.66088017 17.01811412 64.42178945 15.76220703 61.17773438 C10.6142723 47.91150862 5.1480313 35.69565066 -3 24 C-3.83683301 22.7799528 -4.67342429 21.55973976 -5.50976562 20.33935547 C-6.89387567 18.33611997 -8.28914968 16.34051744 -9.69921875 14.35546875 C-10.12847656 13.57816406 -10.55773437 12.80085938 -11 12 C-9.86349426 8.59048278 -8.74186875 7.62363724 -6.0625 5.3125 C-5.35222656 4.68988281 -4.64195312 4.06726563 -3.91015625 3.42578125 C-2 2 -2 2 0 2 C0 1.34 0 0.68 0 0 Z " fill="#F0F7FC" transform="translate(214,332)"/>
<path d="M0 0 C2.82080379 0.61262631 5.13808856 1.47154809 7.671875 2.84765625 C8.66767578 3.38422852 8.66767578 3.38422852 9.68359375 3.93164062 C10.36550781 4.30482422 11.04742187 4.67800781 11.75 5.0625 C12.44738281 5.43955078 13.14476562 5.81660156 13.86328125 6.20507812 C15.57768302 7.13273388 17.28913661 8.06583454 19 9 C16.64868102 16.41881678 13.83009587 23.62266452 10.92138672 30.8371582 C10.13113425 32.79728473 9.34451933 34.75883824 8.55859375 36.72070312 C5.4345615 44.50653227 2.24914615 52.26544282 -1 60 C-3.22312475 56.66531288 -3.91697254 53.64936906 -4.7265625 49.8046875 C-4.87910492 49.09780792 -5.03164734 48.39092834 -5.18881226 47.66262817 C-5.50971369 46.16543845 -5.82722886 44.6675195 -6.14160156 43.16894531 C-6.61938161 40.9016618 -7.11363573 38.63841518 -7.609375 36.375 C-11.49065797 18.32437148 -11.49065797 18.32437148 -8.57421875 11.8203125 C-7.95160156 10.93085938 -7.32898438 10.04140625 -6.6875 9.125 C-6.07261719 8.22007812 -5.45773437 7.31515625 -4.82421875 6.3828125 C-3.31364528 4.40968655 -1.76892199 2.73082213 0 1 C0 0.67 0 0.34 0 0 Z " fill="#D2D4D7" transform="translate(272,361)"/>
<path d="M0 0 C0 0.99 0 1.98 0 3 C0.721875 3.721875 1.44375 4.44375 2.1875 5.1875 C4.35472489 7.35472489 6.08109688 9.26172638 7.8125 11.75 C8.23144531 12.34296875 8.65039062 12.9359375 9.08203125 13.546875 C12.11593499 21.65449862 8.95267151 30.99099256 7.125 39.0625 C6.85558594 40.29033203 6.58617187 41.51816406 6.30859375 42.78320312 C4.96257208 48.87969638 3.55504253 54.95345115 2 61 C-0.1629562 58.8370438 -0.82401361 57.32159526 -1.95532227 54.50610352 C-2.3323378 53.57496231 -2.70935333 52.64382111 -3.09779358 51.6844635 C-3.49993576 50.67612961 -3.90207794 49.66779572 -4.31640625 48.62890625 C-4.94119118 47.07900246 -4.94119118 47.07900246 -5.57859802 45.49778748 C-6.91135811 42.18792944 -8.23688247 38.87522421 -9.5625 35.5625 C-10.45983774 33.33250168 -11.3576187 31.10268165 -12.25585938 28.87304688 C-13.89783976 24.79082553 -15.53937604 20.70843534 -17.17407227 16.62329102 C-17.5033522 15.80103531 -17.83263214 14.9787796 -18.17189026 14.13160706 C-18.82944827 12.43901098 -19.42578192 10.72265424 -20 9 C-19.39414063 8.76925781 -18.78828125 8.53851563 -18.1640625 8.30078125 C-11.9186828 5.8698873 -5.9467253 3.08723611 0 0 Z " fill="#D2D4D7" transform="translate(240,360)"/>
<path d="M0 0 C7.92 0 15.84 0 24 0 C24 9.9 24 19.8 24 30 C16.08 30 8.16 30 0 30 C0 20.1 0 10.2 0 0 Z " fill="#566978" transform="translate(281,476)"/>
<path d="M0 0 C0.87914062 0.09667969 1.75828125 0.19335938 2.6640625 0.29296875 C4.58044149 0.55152782 6.4831233 0.91229531 8.375 1.3125 C11.78071465 1.69951303 13.91826515 0.76071859 17.125 -0.375 C22.2081485 -0.84299526 25.45465898 0.39871052 30 2.625 C31.15242188 3.181875 32.30484375 3.73875 33.4921875 4.3125 C34.36101562 4.745625 35.22984375 5.17875 36.125 5.625 C33.6025687 11.59517661 27.91168728 14.0828403 22.125 16.4375 C11.77199105 19.55414975 -0.35412103 18.70075131 -9.875 13.625 C-12.69221497 11.78280201 -15.32303695 9.81866451 -17.875 7.625 C-16.875 4.625 -16.875 4.625 -15.16796875 3.4921875 C-14.12576172 3.00105469 -14.12576172 3.00105469 -13.0625 2.5 C-12.37542969 2.16742188 -11.68835938 1.83484375 -10.98046875 1.4921875 C-7.08080595 -0.11398159 -4.20181328 -0.48432116 0 0 Z " fill="#CF8858" transform="translate(246.875,267.375)"/>
<path d="M0 0 C26.07 0 52.14 0 79 0 C79 2.31 79 4.62 79 7 C52.93 7 26.86 7 0 7 C0 4.69 0 2.38 0 0 Z " fill="#5A6C7A" transform="translate(275,464)"/>
<path d="M0 0 C0.87914062 0.09667969 1.75828125 0.19335938 2.6640625 0.29296875 C4.58044149 0.55152782 6.4831233 0.91229531 8.375 1.3125 C11.78071465 1.69951303 13.91826515 0.76071859 17.125 -0.375 C22.2081485 -0.84299526 25.45465898 0.39871052 30 2.625 C31.15242188 3.181875 32.30484375 3.73875 33.4921875 4.3125 C34.36101562 4.745625 35.22984375 5.17875 36.125 5.625 C35.795 6.285 35.465 6.945 35.125 7.625 C17.635 7.625 0.145 7.625 -17.875 7.625 C-16.875 4.625 -16.875 4.625 -15.16796875 3.4921875 C-14.12576172 3.00105469 -14.12576172 3.00105469 -13.0625 2.5 C-12.37542969 2.16742188 -11.68835938 1.83484375 -10.98046875 1.4921875 C-7.08080595 -0.11398159 -4.20181328 -0.48432116 0 0 Z " fill="#D89465" transform="translate(246.875,267.375)"/>
<path d="M0 0 C11.22 0 22.44 0 34 0 C34 1.32 34 2.64 34 4 C22.78 4 11.56 4 0 4 C0 2.68 0 1.36 0 0 Z " fill="#6D7F8D" transform="translate(313,477)"/>
<path d="M0 0 C11.55 0 23.1 0 35 0 C34.67 0.99 34.34 1.98 34 3 C22.78 3 11.56 3 0 3 C0 2.01 0 1.02 0 0 Z " fill="#566978" transform="translate(313,490)"/>
<path d="M0 0 C0.33 0 0.66 0 1 0 C1 9.9 1 19.8 1 30 C2.65 30 4.3 30 6 30 C1.72078938 32.33433377 -2.41612905 32.90060906 -7.1875 33.625 C-8.40663086 33.82609375 -8.40663086 33.82609375 -9.65039062 34.03125 C-15.16160227 34.89059565 -20.4233396 35.12330304 -26 35 C-26 34.67 -26 34.34 -26 34 C-18.08 33.505 -18.08 33.505 -10 33 C-10 32.34 -10 31.68 -10 31 C-14.62 31 -19.24 31 -24 31 C-24 30.67 -24 30.34 -24 30 C-16.08 30 -8.16 30 0 30 C0 20.1 0 10.2 0 0 Z " fill="#96ADB4" transform="translate(305,476)"/>
<path d="M0 0 C4.62 0 9.24 0 14 0 C9.17353323 3.21764451 3.80178176 4.36261136 -2 4 C-1.34 2.68 -0.68 1.36 0 0 Z " fill="#617882" transform="translate(313,502)"/>
</svg>
